<?xml version="1.0" standalone="no"?>
<!DOCTYPE svg PUBLIC "-//W3C//DTD SVG 20010904//EN"
 "http://www.w3.org/TR/2001/REC-SVG-20010904/DTD/svg10.dtd">
<svg version="1.0" xmlns="http://www.w3.org/2000/svg"
 width="748.000000pt" height="754.000000pt" viewBox="0 0 748.000000 754.000000"
 preserveAspectRatio="xMidYMid meet">

<g transform="translate(0.000000,754.000000) scale(0.100000,-0.100000)"
fill="#000000" stroke="none">
<path d="M3286 5855 l-26 -24 0 -346 0 -345 793 -2 c864 -1 927 -1 933 5 2 2
-58 62 -133 133 -76 71 -192 181 -258 244 -66 64 -149 143 -185 175 -36 33
-94 88 -130 122 l-65 63 -451 0 -451 0 -27 -25z"/>
<path d="M3066 5739 c-57 -63 -306 -324 -517 -543 -59 -61 -120 -127 -138
-146 l-31 -34 0 -434 c0 -465 1 -473 52 -500 17 -9 108 -12 363 -10 l340 3 0
760 c0 418 -2 807 -5 864 l-5 103 -59 -63z"/>
<path d="M4373 5012 l-43 -3 -1 -787 c-1 -433 -3 -816 -5 -852 -5 -99 0 -103
58 -40 54 59 288 304 483 507 66 69 139 147 163 173 l43 48 -1 453 c0 448 -1
453 -22 476 -21 22 -24 22 -327 25 -168 2 -325 2 -348 0z"/>
<path d="M2470 3942 c0 -5 75 -80 168 -167 436 -413 501 -475 553 -523 l56
-52 441 0 c256 0 451 4 466 10 54 20 57 39 54 402 l-3 333 -867 3 c-478 1
-868 -2 -868 -6z"/>
<path d="M1260 2691 c0 -6 21 -11 48 -13 l47 -3 3 -293 c3 -320 -2 -357 -48
-404 -24 -24 -36 -28 -83 -28 -68 0 -87 18 -87 82 0 32 -6 50 -20 63 -24 22
-65 14 -81 -17 -17 -32 -4 -97 25 -127 23 -23 35 -26 123 -29 162 -7 225 23
262 124 19 51 21 77 21 344 l0 290 45 0 c25 0 45 5 45 10 0 6 -57 10 -150 10
-88 0 -150 -4 -150 -9z"/>
<path d="M1800 2691 c0 -6 17 -11 38 -13 l37 -3 3 -333 2 -333 -24 -24 c-14
-14 -37 -25 -51 -25 -16 0 -25 -6 -25 -15 0 -13 25 -15 161 -15 122 0 160 3
157 12 -3 7 -19 16 -37 19 -61 13 -66 25 -66 167 l0 127 110 6 c204 11 277 71
277 225 -1 121 -33 164 -150 200 -55 16 -432 21 -432 5z m368 -36 c38 -12 59
-25 79 -52 26 -33 28 -44 28 -122 0 -74 -3 -91 -23 -119 -42 -58 -132 -90
-217 -78 l-45 7 0 183 c0 100 3 186 7 189 12 13 119 7 171 -8z"/>
<path d="M2550 2691 c0 -6 19 -11 43 -13 l42 -3 0 -336 c0 -317 -1 -338 -19
-358 -11 -12 -30 -21 -43 -21 -14 0 -23 -6 -23 -15 0 -12 18 -15 100 -15 105
0 124 10 67 34 -20 8 -38 25 -45 42 -16 37 -12 580 3 578 9 -2 25 -35 93 -194
26 -60 71 -168 87 -205 7 -16 24 -55 37 -85 14 -30 35 -81 48 -113 31 -74 38
-72 75 18 9 22 20 49 25 60 5 11 19 45 31 75 11 30 26 69 34 85 7 17 27 66 45
110 18 44 38 94 45 110 6 17 18 46 25 65 38 99 40 89 40 -217 l0 -292 -26 -20
c-15 -12 -35 -21 -45 -21 -11 0 -19 -4 -19 -10 0 -12 61 -15 213 -12 78 2 102
15 48 27 -60 13 -62 21 -59 382 l3 328 38 3 c75 6 35 22 -56 22 l-93 0 -16
-37 c-9 -21 -30 -69 -46 -108 -17 -38 -60 -144 -97 -234 -36 -91 -72 -176 -80
-190 l-13 -26 -20 45 c-11 25 -34 76 -51 113 -17 37 -31 70 -31 73 0 4 -17 46
-50 119 -5 11 -18 40 -28 65 -11 25 -34 75 -50 113 l-31 67 -100 0 c-57 0
-101 -4 -101 -9z"/>
<path d="M5128 2503 c-9 -10 -18 -27 -19 -37 -8 -40 -34 -42 -101 -8 -54 27
-73 32 -136 32 -102 0 -163 -33 -203 -112 -38 -74 -19 -201 37 -249 27 -22
104 -49 141 -49 41 0 158 42 185 66 44 41 61 93 55 171 l-5 73 27 0 c59 0 105
63 76 106 -18 28 -36 30 -57 7z m-208 -48 c50 -26 77 -113 64 -211 -12 -103
-71 -150 -154 -125 -57 17 -72 52 -72 161 0 96 13 134 59 169 33 24 64 26 103
6z"/>
<path d="M5425 2492 c-57 -3 -131 -36 -152 -68 -8 -13 -13 -39 -11 -61 3 -36
5 -38 38 -38 30 0 36 4 44 30 21 70 30 87 57 100 57 30 120 12 148 -42 13 -26
15 -149 2 -157 -5 -4 -31 -9 -58 -12 -167 -19 -254 -81 -255 -183 0 -115 113
-174 232 -120 25 11 54 29 66 40 20 19 20 19 54 -16 28 -29 41 -35 76 -35 58
0 90 16 109 55 21 47 19 62 -6 31 -20 -26 -42 -32 -73 -20 -14 5 -16 32 -16
195 0 210 -7 241 -64 275 -33 20 -111 31 -191 26z m132 -274 c10 -14 8 -171
-2 -188 -11 -18 -87 -52 -120 -53 -42 -1 -83 30 -91 70 -14 74 38 133 151 169
51 16 51 16 62 2z"/>
<path d="M3678 2472 c-114 -52 -175 -187 -149 -330 22 -124 89 -200 195 -222
201 -42 359 132 316 349 -29 145 -118 222 -258 220 -40 0 -82 -7 -104 -17z
m166 -16 c18 -7 44 -29 57 -47 23 -33 24 -41 24 -194 -1 -138 -3 -165 -20
-200 -26 -53 -74 -78 -138 -72 -87 8 -116 57 -124 216 -9 161 19 264 80 294
40 20 78 21 121 3z"/>
<path d="M4425 2478 c-39 -14 -53 -25 -86 -71 l-27 -38 -13 56 -12 55 -89 0
c-67 0 -89 -3 -86 -12 3 -7 25 -14 51 -16 l47 -3 0 -197 c0 -108 -5 -213 -10
-233 -10 -35 -41 -59 -75 -59 -8 0 -15 -7 -15 -15 0 -13 21 -15 152 -13 101 2
153 7 155 14 2 7 -12 15 -31 18 -59 11 -66 32 -66 194 0 123 3 148 20 182 38
75 96 91 145 40 50 -52 103 -32 91 33 -5 25 -16 39 -45 55 -42 24 -61 26 -106
10z"/>
<path d="M6115 2470 c-22 -9 -53 -32 -69 -49 -17 -17 -35 -31 -41 -31 -6 0
-15 19 -21 43 l-9 42 -82 3 c-53 2 -83 -1 -83 -8 0 -5 13 -10 29 -10 63 0 61
8 61 -222 0 -234 -6 -261 -60 -271 -18 -4 -30 -13 -30 -22 0 -13 18 -15 132
-13 76 2 133 7 134 13 2 6 -11 19 -29 30 l-32 20 -3 140 c-4 178 2 216 37 254
31 33 89 49 130 35 50 -18 61 -61 61 -247 0 -93 -4 -177 -10 -187 -5 -10 -21
-21 -35 -24 -15 -4 -25 -12 -22 -19 2 -8 42 -13 130 -15 109 -2 127 0 127 13
0 8 -7 15 -15 15 -9 0 -27 12 -40 26 -25 26 -25 30 -25 199 0 185 -7 221 -52
261 -49 45 -118 54 -183 24z"/>
<path d="M4666 2029 c-34 -40 -36 -99 -4 -129 33 -30 80 -40 218 -47 69 -3
140 -12 158 -20 60 -25 66 -101 11 -147 -39 -33 -88 -46 -177 -46 -107 0 -161
32 -162 97 0 46 -9 63 -35 63 -52 0 -73 -75 -34 -123 38 -50 82 -62 219 -62
121 0 127 1 180 31 69 39 100 88 100 159 0 66 -28 111 -83 135 -30 13 -81 20
-177 25 -74 4 -143 11 -152 16 -23 12 -23 37 -1 61 15 17 15 18 -10 18 -16 0
-35 -11 -51 -31z"/>
<path d="M1566 2008 c-21 -30 -20 -51 4 -73 36 -33 110 -10 110 34 0 33 -30
61 -65 61 -24 0 -39 -7 -49 -22z"/>
<path d="M2273 2004 c-15 -24 -15 -29 -2 -53 28 -50 112 -34 112 22 0 38 -20
57 -59 57 -25 0 -38 -7 -51 -26z"/>
</g>
</svg>
