<?xml version="1.0" encoding="UTF-8" standalone="no"?>
<!-- Created with Inkscape (http://www.inkscape.org/) -->

<svg
   version="1.1"
   id="svg2"
   xml:space="preserve"
   width="378.33334"
   height="270.09332"
   viewBox="0 0 378.33334 270.09332"
   sodipodi:docname="OSU-Engineering-StackedK-RGBHEX.eps"
   xmlns:inkscape="http://www.inkscape.org/namespaces/inkscape"
   xmlns:sodipodi="http://sodipodi.sourceforge.net/DTD/sodipodi-0.dtd"
   xmlns="http://www.w3.org/2000/svg"
   xmlns:svg="http://www.w3.org/2000/svg"><defs
     id="defs6" /><sodipodi:namedview
     id="namedview4"
     pagecolor="#ffffff"
     bordercolor="#666666"
     borderopacity="1.0"
     inkscape:pageshadow="2"
     inkscape:pageopacity="0.0"
     inkscape:pagecheckerboard="0" /><g
     id="g8"
     inkscape:groupmode="layer"
     inkscape:label="ink_ext_XXXXXX"
     transform="matrix(1.3333333,0,0,-1.3333333,0,270.09333)"><g
       id="g10"
       transform="scale(0.1)"><path
         d="m 0,83.0586 c 0,49.2034 36.2461,82.8004 82.3281,82.8004 28.3199,0 48.0039,-13.437 60.7229,-31.679 l -16.563,-9.36 c -9.121,13.68 -25.922,23.282 -44.1599,23.282 -35.0429,0 -61.6875,-26.641 -61.6875,-65.0434 0,-37.9297 26.6446,-65.0469 61.6875,-65.0469 18.2379,0 35.0389,9.8399 44.1599,23.2774 l 16.801,-9.1172 C 129.848,13.6797 110.648,0.25 82.3281,0.25 36.2461,0.25 0,33.8516 0,83.0586"
         style="fill:#100f0d;fill-opacity:1;fill-rule:nonzero;stroke:none"
         id="path12" /><path
         d="m 294.727,83.0586 c 0,37.4414 -23.282,65.0434 -59.043,65.0434 -36.004,0 -58.809,-27.602 -58.809,-65.0434 0,-37.207 22.805,-65.0469 58.809,-65.0469 35.761,0 59.043,27.8399 59.043,65.0469 z m -138.493,0 c 0,47.2734 32.164,82.8004 79.45,82.8004 47.281,0 79.687,-35.527 79.687,-82.8004 0,-47.2891 -32.406,-82.8086 -79.687,-82.8086 -47.286,0 -79.45,35.5195 -79.45,82.8086"
         style="fill:#100f0d;fill-opacity:1;fill-rule:nonzero;stroke:none"
         id="path14" /><path
         d="M 337.672,3.12891 V 163.219 h 19.922 V 20.8906 h 74.41 V 3.12891 h -94.332"
         style="fill:#100f0d;fill-opacity:1;fill-rule:nonzero;stroke:none"
         id="path16" /><path
         d="M 449.996,3.12891 V 163.219 h 19.922 V 20.8906 h 74.406 V 3.12891 h -94.328"
         style="fill:#100f0d;fill-opacity:1;fill-rule:nonzero;stroke:none"
         id="path18" /><path
         d="M 564.957,3.12891 V 163.219 H 669.844 V 145.461 H 584.879 V 93.8594 h 83.285 V 76.1016 h -83.285 v -55.211 h 84.965 V 3.12891 H 564.957"
         style="fill:#100f0d;fill-opacity:1;fill-rule:nonzero;stroke:none"
         id="path20" /><path
         d="m 689.031,83.0586 c 0,49.9214 36.727,82.8004 82.332,82.8004 28.559,0 48.242,-12.48 62.16,-29.757 L 817.688,126.02 c -10.086,12.96 -27.125,22.082 -46.325,22.082 -35.047,0 -61.691,-26.641 -61.691,-65.0434 0,-37.9297 26.644,-65.0469 61.691,-65.0469 19.2,0 35.039,9.1172 43.203,17.2774 v 32.4101 h -55.207 v 17.75 h 74.883 V 27.8516 C 819.363,11.0508 797.523,0 771.363,0 725.758,0 689.031,33.3711 689.031,83.0586"
         style="fill:#100f0d;fill-opacity:1;fill-rule:nonzero;stroke:none"
         id="path22" /><path
         d="M 860.629,3.12891 V 163.219 H 965.523 V 145.461 H 880.551 V 93.8594 h 83.293 V 76.1016 h -83.293 v -55.211 h 84.972 V 3.12891 H 860.629"
         style="fill:#100f0d;fill-opacity:1;fill-rule:nonzero;stroke:none"
         id="path24" /><path
         d="m 1179.36,83.0586 c 0,37.4414 -23.28,65.0434 -59.04,65.0434 -36.01,0 -58.81,-27.602 -58.81,-65.0434 0,-37.207 22.8,-65.0469 58.81,-65.0469 35.76,0 59.04,27.8399 59.04,65.0469 z m -138.5,0 c 0,47.2734 32.17,82.8004 79.46,82.8004 47.28,0 79.68,-35.527 79.68,-82.8004 0,-47.2891 -32.4,-82.8086 -79.68,-82.8086 -47.29,0 -79.46,35.5195 -79.46,82.8086"
         style="fill:#100f0d;fill-opacity:1;fill-rule:nonzero;stroke:none"
         id="path26" /><path
         d="M 1224.95,3.12891 V 163.219 h 104.89 v -17.758 h -84.97 V 93.8594 h 83.29 V 76.1016 h -83.29 V 3.12891 h -19.92"
         style="fill:#100f0d;fill-opacity:1;fill-rule:nonzero;stroke:none"
         id="path28" /><path
         d="M 1407.35,3.12891 V 163.219 h 104.89 v -17.758 h -84.97 V 93.8594 h 83.29 V 76.1016 h -83.29 v -55.211 h 84.97 V 3.12891 h -104.89"
         style="fill:#100f0d;fill-opacity:1;fill-rule:nonzero;stroke:none"
         id="path30" /><path
         d="M 1651.19,3.12891 1557.82,130.82 V 3.12891 H 1537.9 V 163.219 h 20.4 L 1650.46,38.1719 V 163.219 h 19.93 V 3.12891 h -19.2"
         style="fill:#100f0d;fill-opacity:1;fill-rule:nonzero;stroke:none"
         id="path32" /><path
         d="m 1695.34,83.0586 c 0,49.9214 36.73,82.8004 82.33,82.8004 28.57,0 48.24,-12.48 62.17,-29.757 l -15.85,-10.082 c -10.08,12.96 -27.12,22.082 -46.32,22.082 -35.05,0 -61.69,-26.641 -61.69,-65.0434 0,-37.9297 26.64,-65.0469 61.69,-65.0469 19.2,0 35.04,9.1172 43.2,17.2774 v 32.4101 h -55.2 v 17.75 h 74.88 V 27.8516 C 1825.67,11.0508 1803.83,0 1777.67,0 c -45.6,0 -82.33,33.3711 -82.33,83.0586"
         style="fill:#100f0d;fill-opacity:1;fill-rule:nonzero;stroke:none"
         id="path34" /><path
         d="M 1866.94,3.12891 V 163.219 h 19.92 V 3.12891 h -19.92"
         style="fill:#100f0d;fill-opacity:1;fill-rule:nonzero;stroke:none"
         id="path36" /><path
         d="M 2031.6,3.12891 1938.23,130.82 V 3.12891 h -19.92 V 163.219 h 20.4 L 2030.87,38.1719 V 163.219 h 19.93 V 3.12891 h -19.2"
         style="fill:#100f0d;fill-opacity:1;fill-rule:nonzero;stroke:none"
         id="path38" /><path
         d="M 2082.23,3.12891 V 163.219 h 104.89 v -17.758 h -84.97 V 93.8594 h 83.29 V 76.1016 h -83.29 v -55.211 h 84.97 V 3.12891 h -104.89"
         style="fill:#100f0d;fill-opacity:1;fill-rule:nonzero;stroke:none"
         id="path40" /><path
         d="M 2212.78,3.12891 V 163.219 h 104.89 V 145.461 H 2232.7 V 93.8594 h 83.29 V 76.1016 h -83.29 v -55.211 h 84.97 V 3.12891 h -104.89"
         style="fill:#100f0d;fill-opacity:1;fill-rule:nonzero;stroke:none"
         id="path42" /><path
         d="m 2437.43,114.969 c 0,18.25 -13.21,30.492 -32.17,30.492 h -42 V 84.25 h 42 c 18.96,0 32.17,12.7188 32.17,30.719 z M 2435.98,3.12891 2395.42,66.7305 h -32.16 V 3.12891 h -19.93 V 163.219 h 64.33 c 29.29,0 50.4,-18.719 50.4,-48.25 0,-28.7971 -19.92,-44.637 -41.76,-46.5588 l 43.21,-65.28129 h -23.53"
         style="fill:#100f0d;fill-opacity:1;fill-rule:nonzero;stroke:none"
         id="path44" /><path
         d="M 2483.49,3.12891 V 163.219 h 19.92 V 3.12891 h -19.92"
         style="fill:#100f0d;fill-opacity:1;fill-rule:nonzero;stroke:none"
         id="path46" /><path
         d="M 2648.15,3.12891 2554.78,130.82 V 3.12891 h -19.92 V 163.219 h 20.4 L 2647.43,38.1719 V 163.219 h 19.92 V 3.12891 h -19.2"
         style="fill:#100f0d;fill-opacity:1;fill-rule:nonzero;stroke:none"
         id="path48" /><path
         d="m 2692.3,83.0586 c 0,49.9214 36.73,82.8004 82.33,82.8004 28.57,0 48.25,-12.48 62.17,-29.757 l -15.85,-10.082 c -10.08,12.96 -27.12,22.082 -46.32,22.082 -35.05,0 -61.69,-26.641 -61.69,-65.0434 0,-37.9297 26.64,-65.0469 61.69,-65.0469 19.2,0 35.04,9.1172 43.21,17.2774 v 32.4101 h -55.21 v 17.75 h 74.88 V 27.8516 C 2822.63,11.0508 2800.8,0 2774.63,0 c -45.6,0 -82.33,33.3711 -82.33,83.0586"
         style="fill:#100f0d;fill-opacity:1;fill-rule:nonzero;stroke:none"
         id="path50" /><path
         d="m 320.914,990.32 -4.359,30.2 H 261.27 V 825.172 l 29.453,-4.363 V 802.262 H 185.977 v 18.547 l 29.453,4.363 v 195.348 h -55.285 l -4.36,-30.2 h -19.652 v 55.65 h 204.433 v -55.65 h -19.652"
         style="fill:#100f0d;fill-opacity:1;fill-rule:nonzero;stroke:none"
         id="path52" /><path
         d="m 472.598,802.262 v 17.457 l 27.285,4.371 v 66.57 h -72.754 v -66.57 l 27.285,-4.371 v -17.457 h -99.297 v 17.457 l 28.375,4.371 v 147.32 l -28.375,4.36 v 17.46 h 99.297 v -17.46 l -27.285,-4.36 v -57.469 h 72.754 v 57.469 l -27.285,4.36 v 17.46 h 99.297 v -17.46 l -28.36,-4.36 V 824.09 l 28.36,-4.371 v -17.457 h -99.297"
         style="fill:#100f0d;fill-opacity:1;fill-rule:nonzero;stroke:none"
         id="path54" /><path
         d="M 757.773,802.262 H 592.988 v 17.457 l 28.379,4.371 v 147.32 l -28.379,4.36 v 17.46 h 164.785 v -50.558 h -18.55 l -4.375,27.277 H 665.02 v -56.738 h 43.64 l 4.375,24.371 h 16.36 V 867 h -16.36 l -4.375,24.379 h -43.64 v -65.828 h 69.828 l 4.375,27.269 h 18.55 v -50.558"
         style="fill:#100f0d;fill-opacity:1;fill-rule:nonzero;stroke:none"
         id="path56" /><path
         d="m 989.836,1023.78 c -40.379,0 -61.109,-32.37 -61.109,-99.3 0,-67.289 20,-100.019 60.375,-100.019 40.388,0 61.108,32.371 61.108,99.289 0,67.301 -20,100.03 -60.374,100.03 z m -0.379,-225.882 c -75.652,0 -108.75,45.102 -108.75,126.954 0,81.468 33.453,125.488 109.129,125.488 75.654,0 108.764,-45.1 108.764,-126.949 0,-81.481 -33.47,-125.493 -109.143,-125.493"
         style="fill:#100f0d;fill-opacity:1;fill-rule:nonzero;stroke:none"
         id="path58" /><path
         d="m 1235.72,802.262 v 17.457 l 27.27,4.371 v 66.57 h -72.74 v -66.57 l 27.29,-4.371 v -17.457 h -99.32 v 17.457 l 28.38,4.371 v 147.32 l -28.38,4.36 v 17.46 h 99.32 v -17.46 l -27.29,-4.36 v -57.469 h 72.74 v 57.469 l -27.27,4.36 v 17.46 h 99.3 v -17.46 l -28.37,-4.36 V 824.09 l 28.37,-4.371 v -17.457 h -99.3"
         style="fill:#100f0d;fill-opacity:1;fill-rule:nonzero;stroke:none"
         id="path60" /><path
         d="m 1358.66,802.262 v 17.457 l 28.38,4.371 v 147.32 l -28.38,4.36 v 17.46 h 100.4 v -17.46 l -28.38,-4.36 V 824.09 l 28.38,-4.371 v -17.457 h -100.4"
         style="fill:#100f0d;fill-opacity:1;fill-rule:nonzero;stroke:none"
         id="path62" /><path
         d="m 1567.08,971.41 c -30.56,0 -46.92,-22.191 -46.92,-73.48 0,-51.649 15.64,-74.211 46.18,-74.211 30.57,0 47.31,22.191 47.31,73.48 0,51.653 -16.02,74.211 -46.57,74.211 z m -0.36,-172.781 c -64.38,0 -92.39,36.012 -92.39,99.301 0,63.289 28.36,98.582 92.75,98.582 64.38,0 92.39,-36.024 92.39,-99.313 0,-63.289 -28.37,-98.57 -92.75,-98.57"
         style="fill:#100f0d;fill-opacity:1;fill-rule:nonzero;stroke:none"
         id="path64" /><path
         d="m 1858.43,797.898 c -42.18,0 -76.01,14.551 -76.01,14.551 v 52.02 h 20.72 l 4.73,-33.481 c 0,0 15.64,-5.437 43.3,-5.437 28.36,0 53.83,9.449 53.83,40.379 0,27.992 -19.65,32 -43.67,40 -38.19,12.73 -78.56,23.652 -78.56,76.031 0,42.559 26.56,68.379 82.21,68.379 25.46,0 52.01,-5.82 72.75,-13.82 v -48.739 h -20.74 l -4.72,31.279 c 0,0 -21.83,4.72 -42.94,4.72 -21.09,0 -42.92,-7.27 -42.92,-35.28 0,-60.738 122.24,-20.73 122.24,-117.859 0,-45.821 -29.83,-72.743 -90.22,-72.743"
         style="fill:#100f0d;fill-opacity:1;fill-rule:nonzero;stroke:none"
         id="path66" /><path
         d="m 2121.05,940.488 -4.36,29.461 h -42.2 V 824.09 l 28.38,-4.371 v -17.457 h -100.39 v 17.457 l 28.37,4.371 v 145.859 h -42.2 l -4.36,-29.461 h -18.57 v 52.742 h 173.88 v -52.742 h -18.55"
         style="fill:#100f0d;fill-opacity:1;fill-rule:nonzero;stroke:none"
         id="path68" /><path
         d="m 2233.78,956.5 -27.63,-75.668 h 55.29 z m 22.56,-154.238 v 17.457 l 27.27,4.371 -13.44,34.551 h -72.74 l -13.47,-34.551 27.29,-4.371 v -17.457 h -83.31 v 17.457 l 27.29,4.371 65.47,169.14 h 41.81 l 65.49,-169.14 27.29,-4.371 v -17.457 h -98.95"
         style="fill:#100f0d;fill-opacity:1;fill-rule:nonzero;stroke:none"
         id="path70" /><path
         d="m 2498.94,940.488 -4.37,29.461 h -42.19 V 824.09 l 28.38,-4.371 v -17.457 h -100.41 v 17.457 l 28.38,4.371 v 145.859 h -42.21 l -4.36,-29.461 h -18.55 v 52.742 h 173.89 v -52.742 h -18.56"
         style="fill:#100f0d;fill-opacity:1;fill-rule:nonzero;stroke:none"
         id="path72" /><path
         d="m 2698.99,802.262 h -164.78 v 17.457 l 28.37,4.371 v 147.32 l -28.37,4.36 v 17.46 h 164.78 v -50.558 h -18.55 l -4.37,27.277 h -69.82 v -56.738 h 43.63 l 4.37,24.371 h 16.37 V 867 h -16.37 l -4.37,24.379 h -43.63 v -65.828 h 69.82 l 4.37,27.269 h 18.55 v -50.558"
         style="fill:#100f0d;fill-opacity:1;fill-rule:nonzero;stroke:none"
         id="path74" /><path
         d="M 655.355,662.82 V 538.43 c 0,-41.84 -2.542,-60.02 -22.187,-79.668 -14.184,-14.18 -37.465,-21.09 -72.016,-21.09 -34.199,0 -59.652,9.449 -75.679,25.457 -20.707,20.73 -18.539,51.652 -18.539,78.582 V 662.82 l -29.473,4.379 v 18.539 H 542.23 V 667.199 L 512.766,662.82 V 520.238 c 0,-40.008 22.183,-56.019 56.375,-56.019 18.195,0 33.105,3.64 42.922,14.191 8.722,9.09 13.464,23.281 13.464,41.828 V 662.82 l -29.468,4.379 v 18.539 h 88.75 v -18.539 l -29.454,-4.379"
         style="fill:#100f0d;fill-opacity:1;fill-rule:nonzero;stroke:none"
         id="path76" /><path
         d="M 884.871,611.172 V 442.031 h -34.187 l -97.125,136.41 V 463.859 l 28.375,-4.379 v -17.449 h -85.485 v 17.449 l 28.375,4.379 v 147.313 l -28.375,4.379 V 633 h 66.578 l 93.11,-130.211 v 108.383 l -28.36,4.379 V 633 h 85.469 v -17.449 l -28.375,-4.379"
         style="fill:#100f0d;fill-opacity:1;fill-rule:nonzero;stroke:none"
         id="path78" /><path
         d="m 935.797,442.031 v 17.449 l 28.375,4.379 v 147.313 l -28.375,4.379 V 633 h 100.393 v -17.449 l -28.38,-4.379 V 463.859 l 28.38,-4.379 V 442.031 H 935.797"
         style="fill:#100f0d;fill-opacity:1;fill-rule:nonzero;stroke:none"
         id="path80" /><path
         d="m 1249.34,611.172 -63.66,-169.141 h -42.2 l -63.66,169.141 -27.26,4.379 V 633 h 98.91 v -17.449 l -27.27,-4.379 48.39,-130.942 48,130.942 -27.27,4.379 V 633 h 83.3 v -17.449 l -27.28,-4.379"
         style="fill:#100f0d;fill-opacity:1;fill-rule:nonzero;stroke:none"
         id="path82" /><path
         d="m 1456.3,442.031 h -164.77 v 17.449 l 28.36,4.379 v 147.313 l -28.36,4.379 V 633 h 164.77 v -50.57 h -18.56 l -4.35,27.289 h -69.85 v -56.75 h 43.65 l 4.37,24.39 h 16.37 v -70.57 h -16.37 l -4.37,24.371 h -43.65 v -65.851 h 69.85 l 4.35,27.281 h 18.56 v -50.559"
         style="fill:#100f0d;fill-opacity:1;fill-rule:nonzero;stroke:none"
         id="path84" /><path
         d="m 1603.25,603.91 c -7.28,7.629 -22.92,6.899 -32.74,6.899 h -12.73 v -61.11 h 7.64 c 12.36,0 29.47,-1.449 38.56,8.742 5.82,6.528 7.27,14.168 7.27,22.547 0,8.364 -1.82,16.371 -8,22.922 z m 20.38,-161.879 -17.83,43.668 c -12.02,29.082 -19.28,42.531 -44.74,42.531 h -3.28 v -64.371 l 27.27,-4.379 v -17.449 h -99.31 v 17.449 l 28.38,4.379 v 147.313 l -28.38,4.379 V 633 h 96.41 c 19.64,0 42.55,-1.09 57.47,-14.922 9.81,-9.09 15.28,-21.449 15.28,-35.648 0,-22.18 -14.55,-42.18 -34.55,-48.379 15.99,-11.992 29.82,-51.27 37.82,-70.192 l 27.29,-4.379 v -17.449 h -61.83"
         style="fill:#100f0d;fill-opacity:1;fill-rule:nonzero;stroke:none"
         id="path86" /><path
         d="m 1771.66,438.391 c -35.65,0 -65.47,12 -65.47,12 v 49.488 h 19.64 l 4.71,-31.289 c 0,0 13.83,-4.008 35.29,-4.008 23.29,0 41.1,7.637 41.1,28.379 0,14.539 -7.99,19.648 -20,23.629 -35.27,12.019 -80.39,17.109 -80.39,64.75 0,34.211 23.65,54.941 70.56,54.941 21.47,0 43.66,-4.371 62.94,-11.281 v -47.27 h -19.64 l -4.73,29.809 c 0,0 -16.01,3.633 -33.83,3.633 -17.84,0 -33.47,-6.184 -33.47,-24.731 0,-42.562 100.77,-14.179 100.77,-89.851 0,-37.11 -26.92,-58.199 -77.48,-58.199"
         style="fill:#100f0d;fill-opacity:1;fill-rule:nonzero;stroke:none"
         id="path88" /><path
         d="m 1874.58,442.031 v 17.449 l 28.38,4.379 v 147.313 l -28.38,4.379 V 633 H 1975 v -17.449 l -28.38,-4.379 V 463.859 L 1975,459.48 v -17.449 h -100.42"
         style="fill:#100f0d;fill-opacity:1;fill-rule:nonzero;stroke:none"
         id="path90" /><path
         d="m 2151.05,580.27 -4.39,29.449 h -42.17 v -145.86 l 28.37,-4.379 v -17.449 h -100.4 v 17.449 l 28.37,4.379 v 145.86 h -42.2 l -4.37,-29.449 h -18.54 V 633 h 173.86 v -52.73 h -18.53"
         style="fill:#100f0d;fill-opacity:1;fill-rule:nonzero;stroke:none"
         id="path92" /><path
         d="m 2370.37,611.172 -55.65,-86.211 v -61.102 l 28.37,-4.379 V 442.031 H 2242.7 v 17.449 l 28.37,4.379 v 61.102 l -56.39,86.211 -27.28,4.379 V 633 h 101.13 v -17.449 l -27.28,-4.379 39.27,-61.82 38.93,61.82 -26.19,4.379 V 633 h 84.39 v -17.449 l -27.28,-4.379"
         style="fill:#100f0d;fill-opacity:1;fill-rule:nonzero;stroke:none"
         id="path94" /><path
         d="m 1683.86,1864.09 -128.08,127.76 H 1278.4 L 1149.64,1863 v -456.09 l 128.76,-128.85 h 277.38 l 128.08,127.42 v 458.61 z m -402.44,-56.37 51.83,51.83 h 167.96 l 51.81,-51.83 v -345.37 l -51.81,-51.83 h -167.96 l -51.83,51.83 v 345.37 0"
         style="fill:#ba1d24;fill-opacity:1;fill-rule:nonzero;stroke:none"
         id="path96" /><path
         d="m 1266.37,2025.72 -146.72,-146.65 v -485.6 l 145.71,-147.53 h 303.42 l 145.69,146.67 0.99,486.46 -145.66,146.65 h -303.43 z m -133.54,-626.24 v 473.69 l 139.44,139.27 291.48,0.03 139.98,-139.3 -2.45,-474.68 -138.53,-138.52 -290.48,0.02 -139.44,139.49 v 0"
         style="fill:#100f0d;fill-opacity:1;fill-rule:nonzero;stroke:none"
         id="path98" /><path
         d="m 1532.31,1798.45 -41.14,41.16 h -148.48 l -40.58,-40.57 V 1470.69 L 1341.8,1431 h 151.14 l 39.37,39.36 v 328.09 z m -183.87,27.89 h 137.75 l 32.85,-32.84 v -317.61 l -31.62,-31.64 h -140.24 l -31.15,31.16 v 318.53 l 32.41,32.4 v 0"
         style="fill:#100f0d;fill-opacity:1;fill-rule:nonzero;stroke:none"
         id="path100" /><path
         d="M 422.945,309.191 V 295.5 H 2412.18 v 13.691 H 422.945 v 0"
         style="fill:#100f0d;fill-opacity:1;fill-rule:nonzero;stroke:none"
         id="path102" /></g></g></svg>
