<svg id="svg" version="1.1" xmlns="http://www.w3.org/2000/svg" xmlns:xlink="http://www.w3.org/1999/xlink" width="400" height="400.64620355411955" viewBox="0, 0, 400,400.64620355411955"><g id="svgg"><path id="path0" d="M184.168 33.316 C 85.781 42.033,17.118 132.027,34.931 228.918 C 39.142 251.824,50.595 278.507,63.389 295.220 C 64.147 296.210,64.578 297.061,64.437 297.289 C 64.288 297.531,64.334 297.592,64.561 297.452 C 64.938 297.219,68.081 300.992,67.932 301.500 C 67.888 301.653,67.970 301.777,68.115 301.777 C 68.260 301.777,69.557 303.195,70.997 304.927 C 72.438 306.660,74.566 309.011,75.726 310.153 C 76.887 311.294,77.748 312.371,77.640 312.545 C 77.533 312.720,77.593 312.771,77.774 312.659 C 78.185 312.405,79.252 313.532,78.918 313.866 C 78.785 313.999,78.893 314.060,79.160 314.001 C 79.426 313.942,79.608 314.075,79.564 314.297 C 79.519 314.519,79.665 314.665,79.887 314.620 C 80.109 314.576,80.242 314.758,80.183 315.024 C 80.124 315.291,80.183 315.402,80.314 315.270 C 80.445 315.139,82.238 316.666,84.299 318.663 C 108.213 341.836,142.459 358.173,176.252 362.530 C 258.518 373.136,335.940 321.493,357.667 241.519 C 361.186 228.565,363.236 213.846,363.191 201.858 C 363.177 198.119,363.293 195.153,363.454 195.153 C 363.613 195.153,363.765 196.856,363.791 198.937 C 363.818 201.017,363.906 202.786,363.988 202.868 C 364.069 202.949,364.136 201.522,364.136 199.696 C 364.136 196.802,364.201 196.402,364.647 196.573 C 364.928 196.681,365.219 196.769,365.293 196.769 C 365.367 196.769,365.428 197.055,365.428 197.405 C 365.428 197.838,365.583 197.982,365.913 197.855 C 367.072 197.410,366.015 182.752,364.088 172.536 C 360.608 154.096,354.800 137.747,345.953 121.486 C 345.228 120.153,344.549 118.990,344.445 118.901 C 344.131 118.634,341.164 113.588,341.172 113.336 C 341.176 113.207,340.822 112.716,340.385 112.245 C 339.949 111.774,339.671 111.262,339.767 111.106 C 339.863 110.951,339.812 110.824,339.653 110.824 C 339.384 110.824,337.276 107.809,337.294 107.450 C 337.298 107.359,336.945 106.900,336.508 106.429 C 336.072 105.958,335.808 105.410,335.922 105.210 C 336.036 105.010,336.018 104.947,335.882 105.069 C 335.745 105.192,334.245 103.447,332.548 101.192 C 330.850 98.937,329.373 97.019,329.266 96.931 C 329.158 96.842,328.420 95.969,327.625 94.992 C 326.830 94.015,326.105 93.142,326.014 93.053 C 325.923 92.964,324.758 91.656,323.425 90.147 C 320.778 87.148,308.949 75.283,308.606 75.283 C 308.490 75.283,307.814 74.728,307.105 74.050 C 304.160 71.232,295.222 64.345,289.961 60.838 C 258.802 40.069,220.478 30.099,184.168 33.316 M207.754 35.220 C 279.588 39.522,339.848 90.226,356.845 160.667 C 359.173 170.314,359.614 173.016,360.905 185.515 C 361.323 189.562,361.323 207.212,360.905 211.253 C 360.224 217.836,359.905 220.593,359.573 222.779 C 350.560 282.172,310.162 331.422,253.308 352.331 C 246.527 354.825,236.761 357.535,229.564 358.921 C 222.937 360.197,220.664 360.513,210.607 361.551 C 206.633 361.962,188.488 361.972,184.836 361.566 C 183.314 361.397,180.541 361.093,178.675 360.890 C 116.845 354.182,62.631 310.025,42.628 250.081 C 6.036 140.418,92.201 28.300,207.754 35.220 M88.045 113.892 C 85.480 114.941,83.075 117.408,82.117 119.972 L 81.415 121.851 81.499 198.648 C 81.580 272.110,81.609 275.510,82.173 276.961 C 83.051 279.219,84.998 281.233,87.490 282.460 L 89.647 283.522 197.893 283.522 L 306.139 283.522 307.981 282.617 C 310.293 281.482,312.524 279.048,313.305 276.808 C 313.868 275.195,313.893 271.755,313.893 198.061 L 313.893 121.002 313.047 119.197 C 311.971 116.902,310.238 115.170,307.944 114.094 L 306.139 113.247 198.061 113.173 L 89.984 113.099 88.045 113.892 M100.000 120.343 C 102.522 121.382,104.288 123.870,104.591 126.812 C 105.421 134.846,94.362 138.289,90.253 131.277 C 86.555 124.968,93.183 117.533,100.000 120.343 M122.903 120.208 C 126.235 121.454,128.190 124.657,127.858 128.323 C 127.258 134.932,118.636 137.548,114.269 132.446 C 109.092 126.398,115.432 117.412,122.903 120.208 M145.665 120.046 C 153.927 122.500,152.423 134.513,143.793 135.001 C 134.949 135.501,132.552 123.056,140.936 120.161 C 143.049 119.431,143.552 119.419,145.665 120.046 M217.644 165.685 C 217.556 165.988,214.866 175.105,211.668 185.945 C 208.469 196.785,202.791 216.050,199.049 228.756 C 195.307 241.462,192.103 252.185,191.929 252.585 C 191.618 253.301,191.527 253.312,185.594 253.312 L 179.575 253.312 179.791 252.451 C 179.975 251.717,184.958 234.822,197.739 191.599 C 204.187 169.792,205.569 165.257,205.814 165.105 C 206.628 164.600,217.801 165.147,217.644 165.685 M170.524 185.044 L 170.436 191.413 157.674 197.003 C 129.114 209.511,126.313 210.771,126.560 210.997 C 126.774 211.192,152.645 222.580,166.559 228.604 L 170.436 230.283 170.524 236.628 C 170.576 240.386,170.489 242.973,170.311 242.973 C 170.030 242.973,162.413 239.462,128.595 223.745 C 121.042 220.235,114.245 217.096,113.489 216.770 L 112.116 216.178 112.116 210.982 L 112.116 205.786 113.005 205.294 C 114.380 204.533,170.081 178.690,170.362 178.682 C 170.499 178.678,170.572 181.541,170.524 185.044 M230.728 181.132 C 233.642 182.483,246.494 188.388,259.289 194.253 C 272.084 200.119,282.738 205.068,282.964 205.251 C 283.274 205.502,283.353 206.930,283.287 211.066 L 283.199 216.548 254.356 229.760 C 238.492 237.027,225.367 242.973,225.189 242.973 C 224.981 242.973,224.896 240.713,224.953 236.639 L 225.040 230.306 247.173 220.830 C 259.346 215.618,269.513 211.226,269.767 211.069 C 270.089 210.869,263.453 207.879,247.634 201.098 L 225.040 191.413 224.953 185.044 C 224.905 181.541,224.992 178.675,225.148 178.675 C 225.303 178.675,227.815 179.781,230.728 181.132 " stroke="none" fill="#eef1f1" fill-rule="evenodd"></path><path id="path1" d="M192.173 35.132 C 192.933 35.200,194.096 35.199,194.758 35.130 C 195.420 35.060,194.798 35.005,193.376 35.006 C 191.955 35.007,191.413 35.064,192.173 35.132 M200.251 35.132 C 201.011 35.200,202.174 35.199,202.836 35.130 C 203.497 35.060,202.876 35.005,201.454 35.006 C 200.032 35.007,199.491 35.064,200.251 35.132 M184.168 36.537 C 182.658 36.862,180.499 37.134,179.372 37.142 C 178.245 37.150,175.919 37.436,174.203 37.777 C 172.486 38.119,170.428 38.472,169.628 38.562 C 164.411 39.152,148.917 43.361,140.872 46.374 C 138.390 47.304,135.196 48.562,134.264 48.976 C 133.722 49.216,131.826 50.007,130.048 50.732 C 126.740 52.082,123.390 53.631,123.102 53.944 C 123.013 54.041,122.431 54.368,121.809 54.672 C 121.187 54.976,119.806 55.715,118.740 56.313 C 117.674 56.911,116.474 57.571,116.074 57.780 C 115.674 57.988,115.020 58.330,114.620 58.541 C 114.221 58.751,113.509 59.118,113.039 59.355 C 112.569 59.593,112.006 60.002,111.788 60.265 C 111.569 60.528,111.251 60.743,111.079 60.743 C 110.745 60.743,103.751 65.292,103.022 65.984 C 102.782 66.212,101.996 66.781,101.276 67.249 C 95.738 70.845,83.173 82.198,77.515 88.717 C 76.732 89.620,75.346 91.220,74.435 92.271 C 73.525 93.323,72.247 94.766,71.596 95.477 C 70.944 96.187,69.951 97.420,69.388 98.216 C 68.826 99.011,68.186 99.884,67.967 100.154 C 66.853 101.528,65.313 103.514,64.343 104.826 C 63.745 105.634,63.129 106.216,62.973 106.119 C 62.817 106.023,62.760 106.133,62.847 106.364 C 62.935 106.596,62.577 107.430,62.054 108.218 C 61.530 109.005,61.190 109.805,61.297 109.995 C 61.405 110.184,61.375 110.232,61.231 110.102 C 60.894 109.797,60.121 110.808,60.107 111.570 C 60.102 111.891,59.982 112.083,59.842 111.997 C 59.607 111.851,57.813 114.709,55.254 119.305 C 54.663 120.367,54.073 121.073,53.877 120.952 C 53.689 120.835,53.629 120.892,53.743 121.077 C 54.021 121.526,48.329 133.190,47.984 132.877 C 47.836 132.743,47.819 132.814,47.946 133.034 C 48.223 133.515,44.908 141.878,44.533 141.646 C 44.390 141.558,44.348 141.682,44.440 141.923 C 44.533 142.163,43.823 144.752,42.864 147.674 C 41.904 150.597,40.785 154.267,40.377 155.830 C 39.874 157.761,39.543 158.538,39.344 158.254 C 39.151 157.977,39.121 158.077,39.254 158.552 C 39.365 158.946,39.022 161.273,38.493 163.722 C 35.067 179.571,34.027 204.926,36.197 219.709 C 36.393 221.042,36.679 223.005,36.832 224.071 C 37.215 226.727,38.309 232.259,39.069 235.380 C 40.511 241.301,40.797 242.353,42.053 246.358 C 46.036 259.046,56.677 282.448,58.854 283.306 C 59.005 283.366,59.128 283.551,59.128 283.718 C 59.128 284.210,61.743 288.207,62.065 288.207 C 62.226 288.207,62.322 288.389,62.278 288.611 C 62.233 288.833,62.390 288.975,62.625 288.926 C 62.860 288.877,62.957 288.992,62.839 289.182 C 62.722 289.372,64.093 291.569,65.887 294.065 C 67.680 296.561,69.051 298.758,68.934 298.947 C 68.813 299.143,68.872 299.198,69.072 299.075 C 69.496 298.813,70.491 300.134,70.211 300.587 C 70.102 300.763,70.162 300.816,70.343 300.704 C 70.806 300.418,71.846 301.648,71.549 302.130 C 71.400 302.371,71.441 302.440,71.654 302.308 C 71.963 302.117,73.216 303.490,73.309 304.120 C 73.328 304.253,73.453 304.372,73.586 304.385 C 74.118 304.435,74.972 305.478,74.816 305.886 C 74.086 307.789,96.672 327.653,108.078 335.137 C 112.373 337.956,118.749 341.719,119.538 341.901 C 119.780 341.957,120.256 342.269,120.596 342.594 C 120.935 342.918,121.428 343.102,121.690 343.001 C 121.995 342.884,122.083 342.952,121.935 343.193 C 121.779 343.445,121.884 343.498,122.258 343.354 C 122.563 343.237,122.737 343.264,122.644 343.414 C 122.417 343.780,124.028 344.491,124.468 344.219 C 124.692 344.081,124.722 344.157,124.553 344.431 C 124.359 344.745,124.437 344.802,124.843 344.647 C 125.148 344.530,125.324 344.552,125.235 344.697 C 125.054 344.989,127.933 346.488,128.187 346.234 C 128.276 346.145,128.561 346.285,128.821 346.545 C 129.080 346.805,129.426 346.935,129.590 346.834 C 129.753 346.733,129.887 346.799,129.887 346.982 C 129.887 347.165,130.129 347.221,130.425 347.108 C 130.739 346.987,130.881 347.033,130.766 347.219 C 130.517 347.622,135.281 349.695,135.766 349.395 C 136.001 349.251,136.034 349.322,135.861 349.601 C 135.669 349.912,135.744 349.973,136.134 349.823 C 136.430 349.709,136.672 349.743,136.672 349.898 C 136.672 350.288,138.609 350.928,139.021 350.673 C 139.231 350.543,139.258 350.626,139.092 350.894 C 138.900 351.204,138.975 351.265,139.365 351.115 C 139.661 351.002,139.903 351.018,139.903 351.151 C 139.903 351.543,141.843 352.160,142.403 351.945 C 142.764 351.807,142.841 351.871,142.662 352.161 C 142.471 352.470,142.589 352.515,143.134 352.342 C 143.568 352.205,143.785 352.235,143.671 352.419 C 143.461 352.760,145.668 353.543,146.095 353.279 C 146.244 353.187,146.365 353.282,146.365 353.489 C 146.365 353.696,146.583 353.782,146.850 353.680 C 147.116 353.577,147.334 353.611,147.334 353.755 C 147.334 354.109,158.235 357.351,159.424 357.351 C 159.967 357.351,159.489 356.061,158.646 355.254 C 157.408 354.067,157.636 353.820,159.026 354.843 C 164.688 359.012,200.598 361.873,214.701 359.279 C 215.590 359.115,217.116 358.909,218.094 358.819 C 220.348 358.614,222.069 358.372,223.910 358.003 C 224.709 357.842,226.090 357.617,226.979 357.502 C 227.868 357.387,228.874 357.052,229.215 356.756 C 229.557 356.461,229.732 356.399,229.603 356.619 C 229.430 356.915,229.643 356.970,230.436 356.831 C 232.671 356.441,235.362 355.702,235.529 355.433 C 235.624 355.279,236.212 355.147,236.834 355.139 C 237.456 355.131,238.764 354.893,239.742 354.609 C 240.719 354.325,241.963 353.975,242.507 353.831 C 243.050 353.687,243.882 353.316,244.354 353.006 C 244.827 352.697,245.400 352.509,245.628 352.590 C 245.856 352.671,246.581 352.467,247.241 352.136 C 247.900 351.805,248.799 351.535,249.239 351.535 C 250.236 351.535,251.772 350.966,252.067 350.488 C 252.189 350.291,252.830 350.086,253.491 350.034 C 254.152 349.982,254.945 349.711,255.254 349.431 C 255.563 349.152,255.943 348.946,256.098 348.975 C 256.738 349.092,257.216 348.931,257.046 348.657 C 256.947 348.496,257.175 348.445,257.554 348.544 C 258.028 348.668,258.410 348.503,258.778 348.015 C 259.072 347.625,259.713 347.276,260.203 347.238 C 260.692 347.200,261.229 346.952,261.397 346.687 C 261.565 346.421,261.705 346.318,261.707 346.457 C 261.710 346.597,262.040 346.529,262.439 346.307 C 262.839 346.085,263.239 345.891,263.328 345.875 C 263.509 345.843,269.596 342.808,270.598 342.249 C 270.953 342.051,271.462 341.796,271.729 341.682 C 271.995 341.569,272.940 341.055,273.829 340.540 C 274.717 340.025,276.099 339.236,276.898 338.786 C 277.698 338.336,278.934 337.640,279.645 337.239 C 280.355 336.838,281.300 336.255,281.745 335.944 C 282.189 335.632,284.443 334.133,286.753 332.611 C 289.063 331.089,291.322 329.516,291.773 329.116 C 292.224 328.716,293.474 327.791,294.550 327.060 C 295.627 326.329,297.293 325.020,298.254 324.151 C 299.214 323.282,300.727 322.079,301.616 321.477 C 302.983 320.550,307.540 316.240,315.994 307.876 C 316.971 306.909,318.964 304.596,320.422 302.736 C 321.881 300.876,323.631 298.746,324.311 298.003 C 324.992 297.260,326.122 295.806,326.823 294.772 C 327.524 293.738,328.439 292.518,328.856 292.061 C 329.273 291.604,329.930 290.704,330.316 290.061 C 331.772 287.635,332.995 285.854,334.176 284.439 C 334.847 283.636,335.685 282.446,336.038 281.796 C 336.390 281.146,336.812 280.396,336.975 280.129 C 337.138 279.863,337.359 279.426,337.467 279.160 C 337.574 278.893,338.162 277.876,338.773 276.898 C 340.845 273.585,346.636 261.579,346.446 260.992 C 346.401 260.855,346.475 260.743,346.609 260.743 C 346.744 260.743,347.049 260.271,347.288 259.693 C 347.527 259.116,347.909 258.207,348.137 257.674 C 348.364 257.141,348.729 256.123,348.948 255.412 C 349.166 254.701,349.558 253.780,349.818 253.366 C 350.079 252.952,350.317 252.130,350.348 251.541 C 350.379 250.951,350.513 250.536,350.646 250.617 C 350.779 250.699,350.889 250.495,350.889 250.164 C 350.889 249.834,351.012 249.426,351.164 249.257 C 351.316 249.088,351.629 248.223,351.860 247.334 C 352.092 246.446,352.392 245.573,352.528 245.395 C 352.663 245.217,352.742 244.608,352.703 244.042 C 352.663 243.476,352.733 243.076,352.857 243.153 C 352.981 243.229,353.170 243.063,353.278 242.783 C 353.550 242.074,353.523 241.934,353.159 242.159 C 352.987 242.266,353.117 241.802,353.448 241.128 C 354.287 239.423,354.887 237.290,354.639 236.890 C 354.525 236.706,354.565 236.473,354.728 236.372 C 355.107 236.138,356.079 231.708,355.938 230.856 C 355.879 230.501,356.011 229.919,356.231 229.564 C 356.847 228.568,358.764 216.104,358.517 214.701 C 358.454 214.346,358.511 213.910,358.642 213.732 C 359.158 213.037,359.317 210.732,359.272 204.604 C 359.247 201.094,359.231 195.133,359.238 191.357 C 359.250 185.122,359.201 184.491,358.705 184.486 C 358.234 184.482,358.225 184.438,358.643 184.168 C 359.074 183.890,359.074 183.854,358.643 183.845 C 358.212 183.836,358.212 183.800,358.643 183.522 C 359.022 183.277,359.031 183.208,358.686 183.204 C 358.343 183.200,358.283 182.784,358.418 181.357 C 358.531 180.167,358.446 179.225,358.176 178.692 C 357.947 178.238,357.789 177.018,357.825 175.980 C 357.862 174.935,357.730 173.925,357.530 173.718 C 357.331 173.512,357.188 172.544,357.212 171.567 C 357.235 170.590,357.113 169.608,356.940 169.386 C 356.767 169.164,356.713 168.982,356.821 168.982 C 356.928 168.982,356.752 168.510,356.429 167.932 C 356.020 167.201,355.872 166.371,355.939 165.200 C 356.023 163.756,355.962 163.547,355.510 163.720 C 355.152 163.858,355.060 163.798,355.222 163.535 C 355.738 162.701,353.481 159.975,346.167 152.593 C 341.981 148.368,333.370 139.678,327.032 133.283 C 320.694 126.887,324.603 130.704,335.719 141.764 C 355.768 161.714,356.453 162.350,356.831 161.363 C 357.130 160.585,357.057 160.364,356.680 160.905 C 356.430 161.263,356.398 161.105,356.558 160.299 C 356.722 159.469,356.677 159.268,356.369 159.458 C 356.065 159.646,356.019 159.489,356.186 158.826 C 356.335 158.229,356.294 158.013,356.058 158.158 C 355.822 158.304,355.781 158.088,355.931 157.491 C 356.100 156.815,356.055 156.668,355.735 156.866 C 355.416 157.063,355.370 156.917,355.539 156.241 C 355.689 155.644,355.648 155.428,355.412 155.574 C 355.176 155.719,355.135 155.503,355.285 154.906 C 355.431 154.322,355.391 154.094,355.166 154.233 C 354.954 154.364,354.890 154.200,354.995 153.797 C 355.088 153.441,355.015 153.150,354.834 153.150 C 354.652 153.150,354.575 152.823,354.662 152.423 C 354.795 151.820,354.758 151.779,354.445 152.181 C 354.140 152.572,354.106 152.488,354.268 151.750 C 354.387 151.207,354.344 150.911,354.163 151.023 C 353.991 151.130,353.931 150.929,354.026 150.566 C 354.119 150.210,354.037 149.919,353.844 149.919 C 353.650 149.919,353.586 149.680,353.700 149.382 C 353.847 148.999,353.787 148.918,353.494 149.099 C 353.184 149.290,353.139 149.172,353.312 148.627 C 353.479 148.099,353.435 147.966,353.150 148.142 C 352.865 148.318,352.821 148.186,352.989 147.658 C 353.156 147.129,353.112 146.997,352.827 147.173 C 352.545 147.347,352.496 147.222,352.653 146.729 C 352.779 146.330,352.730 146.042,352.536 146.042 C 352.352 146.042,352.294 145.800,352.408 145.504 C 352.540 145.159,352.487 145.045,352.259 145.186 C 351.806 145.466,351.450 144.377,351.744 143.611 C 351.889 143.233,351.845 143.104,351.620 143.243 C 351.395 143.382,351.336 143.212,351.454 142.761 C 351.578 142.287,351.518 142.137,351.266 142.293 C 351.026 142.441,350.964 142.345,351.088 142.020 C 351.194 141.744,351.124 141.519,350.933 141.519 C 350.742 141.519,350.678 141.277,350.792 140.981 C 350.939 140.599,350.879 140.517,350.586 140.698 C 350.277 140.889,350.231 140.771,350.404 140.226 C 350.561 139.731,350.521 139.570,350.277 139.720 C 350.080 139.842,349.898 139.751,349.871 139.518 C 349.845 139.286,349.794 138.877,349.758 138.611 C 349.721 138.344,349.670 137.936,349.644 137.703 C 349.618 137.470,349.465 137.361,349.304 137.460 C 348.977 137.662,348.222 135.772,348.470 135.372 C 348.711 134.982,348.276 134.066,347.947 134.270 C 347.788 134.368,347.636 134.258,347.610 134.026 C 347.583 133.793,347.532 133.384,347.496 133.118 C 347.460 132.851,347.409 132.443,347.382 132.210 C 347.356 131.978,347.204 131.868,347.045 131.966 C 346.675 132.195,346.295 131.232,346.576 130.777 C 346.693 130.587,346.637 130.527,346.449 130.643 C 346.072 130.876,345.618 129.989,345.889 129.550 C 346.067 129.262,341.977 120.840,341.659 120.840 C 341.561 120.840,341.570 120.985,341.680 121.163 C 341.790 121.341,341.802 121.486,341.707 121.486 C 341.613 121.486,341.301 121.034,341.016 120.481 C 340.688 119.847,340.642 119.567,340.892 119.721 C 341.110 119.856,341.023 119.517,340.698 118.967 C 340.373 118.417,339.966 118.055,339.794 118.161 C 339.621 118.268,339.582 118.190,339.707 117.989 C 339.986 117.536,339.406 116.369,338.473 115.509 C 338.088 115.153,337.988 115.008,338.252 115.186 C 338.603 115.423,338.570 115.234,338.127 114.476 C 337.795 113.908,337.406 113.516,337.263 113.605 C 337.120 113.693,337.085 113.551,337.185 113.289 C 337.294 113.007,337.097 112.667,336.705 112.457 C 336.339 112.261,335.877 111.797,335.678 111.424 C 335.400 110.905,335.406 110.802,335.703 110.985 C 336.000 111.169,336.005 111.066,335.724 110.540 C 335.522 110.163,335.281 109.855,335.188 109.855 C 335.095 109.855,335.122 110.022,335.249 110.228 C 335.389 110.454,335.338 110.513,335.121 110.379 C 334.923 110.257,334.825 109.980,334.903 109.763 C 334.981 109.547,334.744 109.006,334.377 108.562 C 334.009 108.118,333.816 107.959,333.948 108.208 C 334.102 108.500,334.059 108.583,333.828 108.440 C 333.631 108.318,333.533 108.041,333.611 107.825 C 333.689 107.608,333.452 107.068,333.084 106.624 C 332.716 106.179,332.523 106.020,332.655 106.270 C 332.809 106.562,332.767 106.644,332.536 106.502 C 332.338 106.380,332.250 106.089,332.340 105.856 C 332.429 105.622,331.990 105.040,331.361 104.560 C 330.733 104.081,330.055 103.368,329.856 102.976 C 329.632 102.535,329.888 102.694,330.526 103.393 C 331.488 104.444,331.474 104.399,330.333 102.746 C 328.257 99.740,325.012 95.800,324.612 95.800 C 324.404 95.800,324.233 95.509,324.233 95.153 C 324.233 94.747,324.053 94.547,323.748 94.615 C 323.481 94.674,323.371 94.615,323.502 94.484 C 323.954 94.032,318.056 87.446,317.505 87.787 C 317.320 87.901,317.289 87.817,317.430 87.588 C 317.589 87.332,316.223 85.751,313.550 83.096 C 311.282 80.842,309.613 79.253,309.841 79.564 C 310.070 79.875,310.123 80.129,309.960 80.129 C 309.548 80.129,307.217 77.705,307.427 77.495 C 307.520 77.402,307.269 77.047,306.868 76.708 L 306.139 76.090 306.754 76.817 C 307.854 78.116,306.941 77.588,304.738 75.651 C 301.191 72.531,298.105 70.372,288.436 64.245 C 286.518 63.030,284.637 61.745,284.255 61.389 C 283.874 61.034,283.423 60.743,283.254 60.743 C 283.084 60.743,282.494 60.271,281.942 59.693 C 281.390 59.116,280.902 58.679,280.857 58.724 C 280.598 58.980,280.148 58.727,279.993 58.239 C 279.894 57.928,278.394 56.947,276.660 56.060 C 274.925 55.173,273.413 54.319,273.300 54.162 C 273.187 54.006,272.683 53.832,272.180 53.777 C 271.677 53.722,271.094 53.441,270.884 53.154 C 270.674 52.867,269.978 52.487,269.338 52.310 C 268.698 52.134,268.174 51.850,268.174 51.681 C 268.174 51.512,267.876 51.373,267.512 51.373 C 267.148 51.373,266.385 51.125,265.816 50.822 C 264.395 50.064,261.666 48.905,258.966 47.912 C 255.379 46.594,252.867 45.666,252.342 45.466 C 243.092 41.934,228.399 38.610,215.509 37.132 C 204.519 35.872,188.663 35.571,184.168 36.537 M312.601 82.391 C 313.835 83.635,314.773 84.653,314.684 84.653 C 314.595 84.653,313.512 83.635,312.278 82.391 C 311.043 81.147,310.106 80.129,310.195 80.129 C 310.284 80.129,311.367 81.147,312.601 82.391 M320.623 90.953 C 321.353 91.842,321.611 92.278,321.197 91.922 C 320.784 91.567,319.848 90.549,319.119 89.661 C 318.389 88.772,318.131 88.336,318.544 88.691 C 318.958 89.047,319.893 90.065,320.623 90.953 M75.424 89.903 L 74.475 90.953 75.525 90.004 C 76.504 89.120,76.724 88.853,76.474 88.853 C 76.418 88.853,75.946 89.326,75.424 89.903 M326.983 98.708 L 327.784 99.677 326.735 98.728 C 326.159 98.206,325.687 97.632,325.687 97.452 C 325.687 97.248,325.780 97.241,325.934 97.431 C 326.070 97.600,326.542 98.174,326.983 98.708 M307.966 114.104 C 309.970 115.043,312.134 117.060,312.760 118.572 C 312.980 119.104,313.305 119.450,313.481 119.342 C 313.676 119.221,313.726 119.443,313.608 119.911 C 313.502 120.333,313.500 120.491,313.605 120.261 C 314.082 119.213,314.613 120.516,314.336 122.054 C 314.183 122.897,314.094 157.640,314.138 199.261 C 314.181 240.882,314.105 274.686,313.968 274.382 C 313.823 274.058,313.781 274.334,313.868 275.048 C 313.969 275.874,313.903 276.197,313.666 276.050 C 313.427 275.902,313.386 276.116,313.536 276.716 C 313.667 277.238,313.634 277.522,313.456 277.412 C 313.289 277.309,313.067 277.450,312.962 277.725 C 312.852 278.011,312.906 278.140,313.089 278.027 C 313.601 277.711,313.465 278.114,312.597 279.489 C 312.150 280.197,311.896 280.776,312.031 280.777 C 312.167 280.779,311.861 280.997,311.352 281.262 C 309.965 281.985,309.974 281.876,311.429 280.298 C 312.162 279.502,312.763 278.751,312.763 278.629 C 312.763 278.506,312.716 278.467,312.660 278.541 C 312.603 278.615,311.840 279.464,310.963 280.429 C 310.087 281.393,309.574 282.061,309.824 281.914 C 310.146 281.723,310.204 281.764,310.024 282.055 C 309.584 282.767,307.034 283.714,306.071 283.524 C 305.256 283.362,305.239 283.376,305.897 283.666 C 306.891 284.103,306.829 284.158,305.250 284.233 C 304.222 284.282,304.039 284.227,304.523 284.014 C 304.899 283.848,260.271 283.694,198.142 283.645 C 79.327 283.553,89.395 283.579,89.176 283.360 C 89.087 283.271,88.172 282.778,87.143 282.263 C 84.947 281.166,83.000 279.089,82.173 276.961 C 81.609 275.510,81.580 272.110,81.499 198.648 L 81.415 121.851 82.117 119.972 C 83.075 117.408,85.480 114.941,88.045 113.892 L 89.984 113.099 198.061 113.173 L 306.139 113.247 307.966 114.104 M94.899 120.000 C 90.093 121.315,87.749 127.005,90.253 131.277 C 94.362 138.289,105.421 134.846,104.591 126.812 C 104.083 121.888,99.576 118.721,94.899 120.000 M342.617 123.021 C 342.910 123.599,343.078 124.071,342.989 124.071 C 342.803 124.071,341.842 122.280,341.842 121.933 C 341.842 121.596,342.017 121.842,342.617 123.021 M360.333 181.260 C 360.333 181.882,360.400 182.137,360.481 181.826 C 360.562 181.515,360.562 181.006,360.481 180.695 C 360.400 180.384,360.333 180.638,360.333 181.260 M34.647 186.430 C 34.647 187.052,34.713 187.306,34.795 186.995 C 34.876 186.684,34.876 186.175,34.795 185.864 C 34.713 185.553,34.647 185.808,34.647 186.430 M361.005 189.176 C 361.007 190.242,361.067 190.640,361.139 190.059 C 361.211 189.478,361.209 188.606,361.136 188.120 C 361.062 187.635,361.003 188.110,361.005 189.176 M34.386 198.546 C 34.386 202.278,34.433 203.760,34.490 201.840 C 34.547 199.920,34.547 196.867,34.490 195.055 C 34.432 193.243,34.385 194.814,34.386 198.546 M361.002 207.754 C 361.002 208.732,361.062 209.132,361.136 208.643 C 361.210 208.154,361.210 207.355,361.136 206.866 C 361.062 206.377,361.002 206.777,361.002 207.754 M34.647 210.339 C 34.647 210.961,34.713 211.216,34.795 210.905 C 34.876 210.594,34.876 210.085,34.795 209.774 C 34.713 209.463,34.647 209.717,34.647 210.339 M87.884 284.172 L 89.015 285.460 87.803 284.347 C 87.137 283.735,86.591 283.092,86.591 282.920 C 86.591 282.747,86.628 282.669,86.672 282.745 C 86.716 282.821,87.262 283.463,87.884 284.172 M90.468 286.753 C 91.071 287.375,91.492 287.884,91.403 287.884 C 91.314 287.884,90.748 287.375,90.145 286.753 C 89.543 286.131,89.122 285.622,89.211 285.622 C 89.300 285.622,89.866 286.131,90.468 286.753 M321.146 305.574 L 320.032 306.785 321.244 305.672 C 322.372 304.635,322.604 304.362,322.357 304.362 C 322.303 304.362,321.758 304.907,321.146 305.574 M76.111 307.027 L 77.060 308.078 76.010 307.129 C 75.031 306.244,74.811 305.977,75.061 305.977 C 75.116 305.977,75.589 306.450,76.111 307.027 M313.080 314.297 L 309.370 318.094 313.166 314.383 C 316.693 310.937,317.109 310.501,316.877 310.501 C 316.829 310.501,315.121 312.209,313.080 314.297 M304.503 322.213 L 303.554 323.263 304.604 322.314 C 305.182 321.792,305.654 321.320,305.654 321.264 C 305.654 321.015,305.388 321.234,304.503 322.213 M187.161 361.783 C 187.652 361.857,188.379 361.855,188.777 361.778 C 189.174 361.702,188.772 361.641,187.884 361.643 C 186.995 361.646,186.670 361.708,187.161 361.783 M206.547 361.783 C 207.038 361.857,207.765 361.855,208.163 361.778 C 208.560 361.702,208.158 361.641,207.270 361.643 C 206.381 361.646,206.056 361.708,206.547 361.783 " stroke="none" fill="#e63e2e" fill-rule="evenodd"></path><path id="path2" d="M141.426 120.007 C 132.842 122.315,134.574 135.038,143.475 135.053 C 152.546 135.069,153.917 121.798,145.040 119.894 C 143.147 119.488,143.384 119.481,141.426 120.007 M205.814 165.105 C 205.569 165.257,204.187 169.792,197.739 191.599 C 184.958 234.822,179.975 251.717,179.791 252.451 L 179.575 253.312 185.594 253.312 C 191.527 253.312,191.618 253.301,191.929 252.585 C 192.103 252.185,195.307 241.462,199.049 228.756 C 202.791 216.050,208.469 196.785,211.668 185.945 C 214.866 175.105,217.556 165.988,217.644 165.685 C 217.801 165.147,206.628 164.600,205.814 165.105 M142.003 191.746 C 126.543 198.927,113.494 205.024,113.005 205.294 L 112.116 205.786 112.116 210.982 L 112.116 216.178 113.489 216.770 C 114.245 217.096,121.042 220.235,128.595 223.745 C 162.413 239.462,170.030 242.973,170.311 242.973 C 170.489 242.973,170.576 240.386,170.524 236.628 L 170.436 230.283 166.559 228.604 C 152.645 222.580,126.774 211.192,126.560 210.997 C 126.313 210.771,129.114 209.511,157.674 197.003 L 170.436 191.413 170.524 185.044 C 170.572 181.541,170.499 178.678,170.362 178.682 C 170.225 178.686,157.464 184.565,142.003 191.746 M224.953 185.044 L 225.040 191.413 247.634 201.098 C 263.453 207.879,270.089 210.869,269.767 211.069 C 269.513 211.226,259.346 215.618,247.173 220.830 L 225.040 230.306 224.953 236.639 C 224.896 240.713,224.981 242.973,225.189 242.973 C 225.367 242.973,238.492 237.027,254.356 229.760 L 283.199 216.548 283.287 211.066 C 283.353 206.930,283.274 205.502,282.964 205.251 C 282.738 205.068,272.084 200.119,259.289 194.253 C 246.494 188.388,233.642 182.483,230.728 181.132 C 227.815 179.781,225.303 178.675,225.148 178.675 C 224.992 178.675,224.905 181.541,224.953 185.044 M363.191 201.858 C 363.236 213.846,361.186 228.565,357.667 241.519 C 337.985 313.964,272.783 363.749,197.509 363.806 C 189.242 363.812,186.811 363.684,178.837 362.819 C 142.898 358.924,108.596 342.415,81.583 316.013 C 74.829 309.412,75.152 309.886,82.451 317.286 C 86.287 321.175,90.111 324.747,92.864 327.012 C 93.382 327.438,94.474 328.368,95.289 329.079 C 99.238 332.520,109.154 339.529,115.186 343.143 C 116.785 344.101,118.603 345.231,119.225 345.655 C 125.357 349.832,146.854 358.737,157.270 361.415 C 158.558 361.746,159.612 362.139,159.612 362.288 C 159.612 362.437,159.750 362.473,159.918 362.369 C 160.086 362.265,162.013 362.608,164.199 363.130 C 185.828 368.294,210.962 368.638,233.441 364.077 C 238.939 362.961,240.202 362.659,246.529 360.947 C 251.802 359.520,261.296 356.157,265.751 354.139 C 266.462 353.817,267.843 353.215,268.821 352.801 C 271.261 351.767,278.192 348.277,280.937 346.700 C 282.181 345.985,283.417 345.297,283.683 345.171 C 292.695 340.914,312.574 325.065,322.225 314.442 C 329.851 306.049,342.488 289.378,342.488 287.711 C 342.488 287.604,342.924 286.881,343.457 286.107 C 343.990 285.332,344.426 284.626,344.426 284.539 C 344.426 284.452,345.138 283.149,346.007 281.644 C 347.789 278.558,351.156 271.907,351.926 269.952 C 352.206 269.241,352.793 267.859,353.230 266.882 C 355.583 261.626,356.752 258.453,359.598 249.596 C 360.174 247.806,362.042 240.708,362.491 238.611 C 363.986 231.613,364.850 226.558,365.391 221.648 C 365.577 219.960,365.879 217.253,366.063 215.634 C 366.620 210.732,366.509 197.626,365.913 197.855 C 365.589 197.979,365.428 197.842,365.428 197.440 C 365.428 196.941,364.851 196.446,364.271 196.446 C 364.197 196.446,364.136 197.924,364.136 199.731 C 364.136 201.537,364.069 202.949,363.988 202.868 C 363.906 202.786,363.818 201.017,363.791 198.937 C 363.765 196.856,363.613 195.153,363.454 195.153 C 363.293 195.153,363.177 198.119,363.191 201.858 M88.207 324.195 C 88.207 324.264,88.607 324.577,89.095 324.892 L 89.984 325.464 89.368 324.767 C 88.824 324.151,88.207 323.848,88.207 324.195 " stroke="none" fill="#518495" fill-rule="evenodd"></path><path id="path3" d="M117.122 120.307 C 112.306 122.550,110.905 128.515,114.269 132.446 C 118.636 137.548,127.258 134.932,127.858 128.323 C 128.404 122.296,122.431 117.835,117.122 120.307 " stroke="none" fill="#a8b829" fill-rule="evenodd"></path><path id="path4" d="M189.984 35.251 C 114.485 38.189,49.648 95.286,36.841 170.113 C 30.350 208.044,37.080 246.597,55.955 279.600 C 61.576 289.430,69.479 300.397,75.062 306.118 L 76.974 308.078 75.037 305.816 C 69.823 299.728,62.498 289.734,62.842 289.177 C 62.958 288.990,62.860 288.877,62.625 288.926 C 62.390 288.975,62.233 288.833,62.278 288.611 C 62.322 288.389,62.226 288.207,62.065 288.207 C 61.743 288.207,59.128 284.210,59.128 283.718 C 59.128 283.551,59.005 283.366,58.854 283.306 C 56.677 282.448,46.036 259.046,42.053 246.358 C 40.797 242.353,40.511 241.301,39.069 235.380 C 38.270 232.099,37.207 226.673,36.790 223.748 C 36.613 222.504,36.327 220.541,36.155 219.386 C 35.141 212.569,34.877 190.728,35.701 181.745 C 37.662 160.353,44.898 137.360,55.478 118.901 C 59.172 112.457,59.568 111.828,59.832 111.991 C 59.978 112.081,60.102 111.891,60.107 111.570 C 60.119 110.926,60.877 109.773,61.125 110.021 C 61.211 110.107,61.282 109.992,61.282 109.764 C 61.282 109.212,63.940 105.286,67.042 101.257 C 67.574 100.566,68.092 99.927,68.194 99.838 C 68.296 99.750,68.836 99.023,69.395 98.223 C 69.954 97.423,70.944 96.187,71.596 95.477 C 72.247 94.766,73.525 93.323,74.435 92.271 C 75.346 91.220,76.732 89.620,77.515 88.717 C 83.173 82.198,95.738 70.845,101.276 67.249 C 101.996 66.781,102.782 66.212,103.022 65.984 C 103.751 65.292,110.745 60.743,111.079 60.743 C 111.251 60.743,111.569 60.528,111.788 60.265 C 112.006 60.002,112.569 59.593,113.039 59.355 C 115.395 58.165,116.324 57.669,118.740 56.313 C 119.806 55.715,121.187 54.976,121.809 54.672 C 122.431 54.368,123.013 54.041,123.102 53.944 C 123.390 53.631,126.740 52.082,130.048 50.732 C 131.826 50.007,133.722 49.216,134.264 48.976 C 135.196 48.562,138.390 47.304,140.872 46.374 C 148.917 43.361,164.411 39.152,169.628 38.562 C 170.428 38.472,172.486 38.119,174.203 37.777 C 175.919 37.436,178.193 37.157,179.256 37.157 C 180.319 37.157,182.559 36.875,184.234 36.530 C 197.695 33.761,234.243 38.556,252.342 45.466 C 252.867 45.666,255.379 46.594,258.966 47.912 C 261.666 48.905,264.395 50.064,265.816 50.822 C 266.385 51.125,267.148 51.373,267.512 51.373 C 267.876 51.373,268.174 51.512,268.174 51.681 C 268.174 51.850,268.698 52.134,269.338 52.310 C 269.978 52.487,270.674 52.867,270.884 53.154 C 271.094 53.441,271.677 53.722,272.180 53.777 C 272.683 53.832,273.187 54.006,273.300 54.162 C 273.413 54.319,274.925 55.173,276.660 56.060 C 278.394 56.947,279.894 57.928,279.993 58.239 C 280.092 58.550,280.308 58.805,280.474 58.805 C 281.007 58.805,281.231 58.950,282.096 59.855 C 282.563 60.343,283.084 60.743,283.254 60.743 C 283.423 60.743,283.874 61.034,284.255 61.389 C 284.637 61.745,286.518 63.030,288.436 64.245 C 300.426 71.843,303.659 74.296,312.302 82.359 C 313.559 83.532,312.469 82.402,309.879 79.850 C 279.210 49.621,235.787 33.468,189.984 35.251 M319.119 89.661 C 319.848 90.549,320.784 91.567,321.197 91.922 C 321.611 92.278,321.353 91.842,320.623 90.953 C 319.893 90.065,318.958 89.047,318.544 88.691 C 318.131 88.336,318.389 88.772,319.119 89.661 M325.687 97.452 C 325.687 97.632,326.159 98.206,326.735 98.728 L 327.784 99.677 326.983 98.708 C 326.542 98.174,326.070 97.600,325.934 97.431 C 325.780 97.241,325.687 97.248,325.687 97.452 M329.817 102.912 C 330.000 103.269,330.491 103.849,330.907 104.202 C 331.637 104.819,331.636 104.808,330.861 103.875 C 329.574 102.325,329.466 102.225,329.817 102.912 M313.583 119.871 C 313.727 120.315,313.937 121.187,314.051 121.809 L 314.258 122.940 314.411 121.760 C 314.522 120.907,314.392 120.369,313.943 119.821 L 313.323 119.063 313.583 119.871 M341.034 120.517 C 341.310 121.050,341.608 121.486,341.697 121.486 C 341.786 121.486,341.633 121.050,341.357 120.517 C 341.081 119.984,340.783 119.548,340.694 119.548 C 340.605 119.548,340.758 119.984,341.034 120.517 M327.032 133.283 C 333.370 139.678,341.981 148.368,346.167 152.593 C 353.481 159.975,355.738 162.701,355.222 163.535 C 355.060 163.798,355.152 163.858,355.510 163.720 C 355.962 163.547,356.023 163.756,355.939 165.200 C 355.872 166.371,356.020 167.201,356.429 167.932 C 356.752 168.510,356.928 168.982,356.821 168.982 C 356.713 168.982,356.767 169.164,356.940 169.386 C 357.113 169.608,357.235 170.590,357.212 171.567 C 357.188 172.544,357.331 173.512,357.530 173.718 C 357.730 173.925,357.862 174.935,357.825 175.980 C 357.789 177.018,357.947 178.238,358.176 178.692 C 358.446 179.225,358.531 180.167,358.418 181.357 C 358.283 182.784,358.343 183.200,358.686 183.204 C 359.031 183.208,359.022 183.277,358.643 183.522 C 358.212 183.800,358.212 183.836,358.643 183.845 C 359.074 183.854,359.074 183.890,358.643 184.168 C 358.225 184.438,358.234 184.482,358.705 184.486 C 359.201 184.491,359.250 185.122,359.238 191.357 C 359.231 195.133,359.247 201.094,359.272 204.604 C 359.317 210.732,359.158 213.037,358.642 213.732 C 358.511 213.910,358.454 214.346,358.517 214.701 C 358.764 216.104,356.847 228.568,356.231 229.564 C 356.011 229.919,355.879 230.501,355.938 230.856 C 356.079 231.708,355.107 236.138,354.728 236.372 C 354.565 236.473,354.525 236.706,354.639 236.890 C 354.887 237.290,354.287 239.423,353.448 241.128 C 353.117 241.802,353.011 242.251,353.214 242.125 C 353.462 241.972,353.512 242.083,353.367 242.461 C 353.248 242.772,353.150 243.095,353.150 243.180 C 353.150 243.264,353.033 243.262,352.891 243.173 C 352.748 243.085,352.663 243.476,352.703 244.042 C 352.742 244.608,352.663 245.217,352.528 245.395 C 352.392 245.573,352.092 246.446,351.860 247.334 C 351.629 248.223,351.316 249.088,351.164 249.257 C 351.012 249.426,350.889 249.834,350.889 250.164 C 350.889 250.495,350.779 250.699,350.646 250.617 C 350.513 250.536,350.379 250.951,350.348 251.541 C 350.317 252.130,350.079 252.952,349.818 253.366 C 349.558 253.780,349.166 254.701,348.948 255.412 C 348.729 256.123,348.364 257.141,348.137 257.674 C 347.909 258.207,347.527 259.116,347.288 259.693 C 347.049 260.271,346.744 260.743,346.609 260.743 C 346.475 260.743,346.401 260.855,346.446 260.992 C 346.636 261.579,340.845 273.585,338.773 276.898 C 338.162 277.876,337.574 278.893,337.467 279.160 C 337.359 279.426,337.138 279.863,336.975 280.129 C 336.812 280.396,336.390 281.146,336.038 281.796 C 335.685 282.446,334.847 283.636,334.176 284.439 C 332.995 285.854,331.772 287.635,330.316 290.061 C 329.930 290.704,329.273 291.604,328.856 292.061 C 328.439 292.518,327.524 293.738,326.823 294.772 C 326.122 295.806,324.992 297.260,324.311 298.003 C 323.631 298.746,321.881 300.876,320.422 302.736 C 318.964 304.596,316.971 306.909,315.994 307.876 C 307.540 316.240,302.983 320.550,301.616 321.477 C 300.727 322.079,299.214 323.282,298.254 324.151 C 297.293 325.020,295.627 326.329,294.550 327.060 C 293.474 327.791,292.224 328.716,291.773 329.116 C 291.322 329.516,289.063 331.089,286.753 332.611 C 284.443 334.133,282.189 335.632,281.745 335.944 C 281.300 336.255,280.355 336.838,279.645 337.239 C 278.934 337.640,277.698 338.336,276.898 338.786 C 276.099 339.236,274.717 340.025,273.829 340.540 C 272.940 341.055,271.995 341.569,271.729 341.682 C 271.462 341.796,270.953 342.051,270.598 342.249 C 269.596 342.808,263.509 345.843,263.328 345.875 C 263.239 345.891,262.839 346.085,262.439 346.307 C 262.040 346.529,261.710 346.597,261.707 346.457 C 261.705 346.318,261.565 346.421,261.397 346.687 C 261.229 346.952,260.692 347.200,260.203 347.238 C 259.713 347.276,259.072 347.625,258.778 348.015 C 258.410 348.503,258.028 348.668,257.554 348.544 C 257.175 348.445,256.947 348.496,257.046 348.657 C 257.216 348.931,256.738 349.092,256.098 348.975 C 255.943 348.946,255.563 349.152,255.254 349.431 C 254.945 349.711,254.152 349.982,253.491 350.034 C 252.830 350.086,252.189 350.291,252.067 350.488 C 251.772 350.966,250.236 351.535,249.239 351.535 C 248.799 351.535,247.900 351.805,247.241 352.136 C 246.581 352.467,245.856 352.671,245.628 352.590 C 245.400 352.509,244.827 352.697,244.354 353.006 C 243.882 353.316,243.050 353.687,242.507 353.831 C 241.963 353.975,240.719 354.325,239.742 354.609 C 238.764 354.893,237.456 355.131,236.834 355.139 C 236.212 355.147,235.624 355.279,235.529 355.433 C 235.362 355.702,232.671 356.441,230.436 356.831 C 229.643 356.970,229.430 356.915,229.603 356.619 C 229.732 356.399,229.557 356.461,229.215 356.756 C 228.874 357.052,227.868 357.387,226.979 357.502 C 226.090 357.617,224.709 357.842,223.910 358.003 C 222.069 358.372,220.348 358.614,218.094 358.819 C 217.116 358.909,215.590 359.115,214.701 359.279 C 200.598 361.873,164.688 359.012,159.026 354.843 C 157.636 353.820,157.408 354.067,158.646 355.254 C 159.178 355.763,159.612 356.430,159.612 356.737 C 159.612 357.657,168.516 359.550,178.352 360.721 C 277.067 372.476,363.677 293.710,361.118 194.507 C 360.797 182.069,358.547 165.004,356.672 160.784 C 356.409 160.193,356.391 160.221,356.542 160.985 C 356.888 162.742,355.690 161.637,335.719 141.764 C 324.603 130.704,320.694 126.887,327.032 133.283 M341.842 121.933 C 341.842 122.280,342.803 124.071,342.989 124.071 C 343.078 124.071,342.910 123.599,342.617 123.021 C 342.017 121.842,341.842 121.596,341.842 121.933 M345.746 129.725 C 345.746 129.903,346.025 130.557,346.365 131.179 C 346.706 131.801,346.984 132.165,346.984 131.987 C 346.984 131.809,346.706 131.155,346.365 130.533 C 346.025 129.911,345.746 129.548,345.746 129.725 M348.489 136.026 C 348.608 136.470,348.840 137.052,349.004 137.318 C 349.213 137.655,349.238 137.557,349.088 136.995 C 348.969 136.551,348.737 135.969,348.572 135.703 C 348.364 135.366,348.339 135.464,348.489 136.026 M312.651 278.726 C 311.541 280.844,309.034 282.631,305.654 283.715 L 303.877 284.285 305.219 284.226 C 305.957 284.194,306.501 284.071,306.428 283.952 C 306.355 283.833,306.733 283.640,307.269 283.522 C 307.804 283.404,308.965 282.811,309.848 282.203 C 310.732 281.596,311.628 281.099,311.839 281.099 C 312.051 281.099,312.135 281.010,312.027 280.901 C 311.919 280.793,312.196 280.125,312.643 279.417 C 313.090 278.709,313.383 278.057,313.294 277.969 C 313.206 277.880,312.916 278.221,312.651 278.726 M86.591 282.920 C 86.591 283.092,87.137 283.735,87.803 284.347 L 89.015 285.460 87.884 284.172 C 87.262 283.463,86.716 282.821,86.672 282.745 C 86.628 282.669,86.591 282.747,86.591 282.920 M90.145 286.753 C 90.748 287.375,91.314 287.884,91.403 287.884 C 91.492 287.884,91.071 287.375,90.468 286.753 C 89.866 286.131,89.300 285.622,89.211 285.622 C 89.122 285.622,89.543 286.131,90.145 286.753 " stroke="none" fill="#cc1c14" fill-rule="evenodd"></path></g></svg>