<svg id="svg" version="1.1" xmlns="http://www.w3.org/2000/svg" xmlns:xlink="http://www.w3.org/1999/xlink" width="400" height="425.6243213897937" viewBox="0, 0, 400,425.6243213897937"><g id="svgg"><path id="path0" d="M190.914 4.174 C 189.766 4.452,188.596 4.862,188.314 5.084 C 188.031 5.307,187.342 5.599,186.782 5.732 C 185.555 6.024,180.808 9.003,180.083 9.935 C 179.799 10.301,178.886 11.320,178.055 12.200 C 177.223 13.080,176.034 14.710,175.413 15.823 L 174.284 17.846 169.984 18.348 C 165.920 18.823,164.420 19.109,155.200 21.160 C 148.799 22.585,141.935 24.394,140.635 24.999 C 139.956 25.315,137.240 26.274,134.600 27.131 C 126.355 29.804,112.586 36.218,104.704 41.055 C 102.782 42.235,101.072 43.201,100.904 43.202 C 100.737 43.203,99.663 43.914,98.517 44.783 C 97.372 45.651,95.932 46.625,95.317 46.947 C 94.703 47.269,92.220 48.997,89.800 50.787 C 85.949 53.635,85.250 54.009,84.200 53.790 C 77.085 52.304,67.872 53.202,66.000 55.564 C 65.890 55.703,65.350 56.017,64.800 56.262 C 61.891 57.557,57.148 62.361,56.133 65.040 C 55.974 65.458,55.612 66.036,55.326 66.325 C 53.674 67.996,52.704 78.308,53.719 83.400 C 54.032 84.967,53.964 85.098,50.455 89.759 C 48.484 92.377,46.631 94.981,46.336 95.547 C 46.041 96.113,45.504 96.877,45.142 97.245 C 44.781 97.614,43.728 99.239,42.802 100.858 C 41.877 102.476,40.759 104.313,40.318 104.940 C 39.878 105.567,38.664 107.734,37.623 109.756 C 36.581 111.778,35.442 113.875,35.092 114.416 C 34.743 114.957,33.797 116.930,32.991 118.800 C 32.184 120.670,30.915 123.460,30.170 125.000 C 29.424 126.540,27.982 130.140,26.965 133.000 C 25.947 135.860,24.774 139.139,24.357 140.287 C 23.740 141.985,21.705 149.510,19.566 158.000 C 18.944 160.470,17.200 171.501,17.200 172.968 C 17.200 174.255,17.024 174.478,15.300 175.371 C 14.255 175.913,12.230 177.499,10.800 178.895 C 8.383 181.257,7.772 182.211,4.976 188.000 C 3.057 191.975,3.168 199.665,5.211 204.200 C 5.607 205.080,6.321 206.676,6.797 207.747 C 7.724 209.831,13.492 216.000,14.514 216.000 C 15.956 216.000,17.046 218.845,17.963 225.000 C 18.873 231.109,18.984 231.639,21.190 240.400 C 23.118 248.060,24.388 252.418,25.232 254.270 C 25.654 255.197,26.002 256.101,26.004 256.278 C 26.013 256.907,29.258 265.400,30.172 267.186 C 30.682 268.184,31.691 270.350,32.414 272.000 C 34.315 276.342,39.797 286.615,40.769 287.659 C 41.226 288.150,41.600 288.764,41.600 289.023 C 41.600 289.283,42.799 291.274,44.264 293.448 C 45.729 295.622,47.652 298.480,48.537 299.800 C 49.422 301.120,50.352 302.380,50.604 302.600 C 50.856 302.820,51.751 303.984,52.593 305.187 L 54.124 307.374 53.662 309.611 C 51.936 317.967,55.032 328.113,60.701 332.677 C 62.828 334.390,67.340 338.930,68.277 340.300 C 68.615 340.795,69.063 341.200,69.273 341.200 C 69.482 341.200,70.227 341.638,70.928 342.173 C 71.630 342.707,72.677 343.325,73.256 343.545 L 74.308 343.945 72.966 348.473 C 72.228 350.963,71.617 353.270,71.609 353.600 C 71.601 353.930,71.360 354.650,71.073 355.200 C 67.525 362.000,70.404 372.959,77.070 378.028 C 79.567 379.927,80.573 380.800,80.265 380.800 C 80.159 380.800,80.551 381.370,81.136 382.067 C 82.546 383.746,85.200 386.422,85.200 386.164 C 85.200 386.051,85.786 386.406,86.502 386.952 C 95.813 394.054,113.768 388.095,115.858 377.209 C 115.963 376.663,116.241 376.098,116.476 375.953 C 116.710 375.808,116.779 375.489,116.628 375.245 C 116.476 375.000,116.528 374.800,116.741 374.800 C 117.117 374.800,119.717 367.151,120.242 364.500 C 120.384 363.785,120.561 363.200,120.636 363.200 C 121.132 363.200,123.600 364.614,123.600 364.898 C 123.600 365.090,123.780 365.136,124.000 365.000 C 124.220 364.864,124.400 364.940,124.400 365.169 C 124.400 365.398,124.895 365.708,125.500 365.859 C 126.105 366.009,127.355 366.553,128.277 367.066 C 129.199 367.580,130.189 368.006,130.477 368.014 C 130.765 368.021,131.720 368.375,132.600 368.800 C 133.480 369.225,134.442 369.579,134.738 369.586 C 135.034 369.594,135.754 369.936,136.338 370.348 C 136.922 370.759,137.850 371.220,138.400 371.373 C 138.950 371.525,139.760 371.802,140.200 371.988 C 141.446 372.515,144.834 373.604,146.600 374.045 C 147.480 374.265,148.621 374.719,149.135 375.054 C 149.649 375.390,150.159 375.574,150.268 375.465 C 150.378 375.356,151.421 375.594,152.587 375.996 C 155.770 377.091,165.239 379.341,170.400 380.228 C 171.525 380.422,174.094 380.911,174.400 380.990 C 174.510 381.018,175.660 381.183,176.956 381.356 C 178.612 381.578,179.622 381.964,180.356 382.655 C 180.930 383.195,181.983 383.919,182.696 384.263 C 183.410 384.607,183.908 385.026,183.803 385.195 C 183.582 385.552,186.278 389.200,186.762 389.200 C 186.942 389.200,187.772 389.845,188.609 390.634 C 189.946 391.895,194.585 394.400,195.584 394.400 C 195.784 394.400,196.455 394.608,197.074 394.861 C 199.055 395.673,199.733 395.772,203.200 395.757 C 206.998 395.742,208.806 395.579,209.400 395.200 C 209.620 395.059,210.610 394.695,211.600 394.390 C 212.590 394.085,213.940 393.511,214.600 393.112 C 215.260 392.714,216.115 392.280,216.500 392.148 C 216.885 392.015,217.200 391.748,217.200 391.553 C 217.200 391.359,217.403 391.200,217.652 391.200 C 217.900 391.200,219.070 390.210,220.252 389.000 C 221.433 387.790,222.327 386.800,222.239 386.800 C 222.151 386.800,222.589 386.254,223.213 385.586 C 223.837 384.918,224.540 383.787,224.776 383.072 C 225.030 382.304,225.491 381.753,225.903 381.726 C 228.524 381.555,232.000 381.041,232.000 380.825 C 232.000 380.587,233.217 380.443,235.522 380.408 C 236.029 380.401,236.347 380.238,236.229 380.046 C 236.110 379.855,236.955 379.602,238.107 379.485 C 239.258 379.368,240.650 379.169,241.200 379.043 C 242.489 378.747,243.990 378.427,245.000 378.233 C 245.440 378.148,247.330 377.689,249.200 377.212 C 251.070 376.736,253.270 376.178,254.088 375.974 C 254.906 375.769,256.346 375.259,257.288 374.840 C 258.230 374.421,260.800 373.495,263.000 372.783 C 269.117 370.804,269.600 370.625,269.600 370.334 C 269.600 370.185,270.138 369.945,270.795 369.801 C 271.453 369.657,272.094 369.372,272.219 369.169 C 272.610 368.536,273.600 368.765,273.600 369.489 C 273.600 369.868,273.957 371.353,274.394 372.789 C 274.831 374.225,275.815 377.625,276.581 380.344 C 277.348 383.063,278.129 385.493,278.317 385.744 C 278.506 385.995,278.883 387.010,279.156 388.000 C 282.853 401.414,284.788 405.629,288.890 409.198 C 291.750 411.686,292.854 412.785,295.347 415.629 C 297.139 417.672,301.626 420.552,303.669 420.970 C 303.961 421.030,304.560 421.241,305.000 421.440 C 306.253 422.004,314.222 421.846,314.949 421.242 C 315.288 420.961,315.737 420.838,315.948 420.968 C 316.159 421.098,316.392 421.069,316.466 420.902 C 316.540 420.736,317.822 419.994,319.316 419.254 C 323.305 417.276,328.400 411.853,328.400 409.584 C 328.400 409.184,328.637 408.619,328.927 408.329 C 330.303 406.948,330.865 400.010,329.806 397.475 C 329.459 396.645,329.281 395.793,329.411 395.582 C 329.541 395.372,329.472 395.200,329.259 395.200 C 329.045 395.200,328.744 394.435,328.589 393.500 C 328.434 392.565,328.158 391.516,327.976 391.169 C 327.795 390.822,327.586 390.102,327.513 389.569 C 327.440 389.036,327.270 388.420,327.137 388.200 C 327.003 387.980,326.748 387.170,326.570 386.400 C 326.391 385.630,326.223 384.910,326.197 384.800 C 325.902 383.584,324.994 380.749,324.594 379.800 C 324.138 378.715,323.503 376.912,323.398 376.400 C 323.213 375.493,320.917 368.435,320.082 366.200 C 319.506 364.660,318.996 363.161,318.948 362.869 C 318.901 362.577,318.731 362.037,318.570 361.669 C 318.410 361.301,318.236 360.820,318.184 360.600 C 317.947 359.604,315.910 353.297,315.535 352.400 C 315.306 351.850,315.036 350.950,314.935 350.400 C 314.835 349.850,314.582 349.340,314.374 349.266 C 314.166 349.192,314.080 348.994,314.185 348.825 C 314.289 348.656,314.021 347.825,313.589 346.978 C 312.673 345.182,313.020 344.552,314.671 345.017 C 315.292 345.192,315.890 345.357,316.000 345.385 C 320.005 346.390,320.850 346.482,324.150 346.272 C 327.323 346.071,328.826 345.882,329.600 345.584 C 329.710 345.542,329.980 345.481,330.200 345.449 C 332.325 345.137,338.740 341.107,340.458 339.005 C 340.820 338.562,341.498 337.764,341.964 337.232 C 342.430 336.700,343.214 335.440,343.706 334.432 C 344.197 333.424,344.751 332.489,344.936 332.354 C 346.309 331.351,347.330 320.333,346.350 317.099 C 346.133 316.385,345.883 315.530,345.794 315.200 C 345.705 314.870,345.524 314.233,345.391 313.785 C 345.227 313.227,345.490 312.604,346.224 311.812 C 346.815 311.175,347.831 309.787,348.483 308.727 C 349.135 307.667,349.844 306.800,350.058 306.800 C 350.272 306.800,350.348 306.639,350.226 306.442 C 350.104 306.245,350.285 305.976,350.628 305.845 C 350.970 305.713,351.146 305.437,351.019 305.230 C 350.891 305.024,350.960 304.748,351.172 304.617 C 351.703 304.289,354.000 300.848,354.000 300.380 C 354.000 300.171,354.150 300.000,354.332 300.000 C 354.515 300.000,354.917 299.505,355.224 298.900 C 355.532 298.295,356.172 297.260,356.647 296.600 C 357.122 295.940,358.004 294.410,358.608 293.200 C 359.211 291.990,359.906 290.868,360.152 290.706 C 360.406 290.540,360.427 290.407,360.200 290.400 C 359.962 290.393,359.976 290.269,360.234 290.094 C 360.704 289.776,367.576 275.932,367.799 274.854 C 367.874 274.494,368.347 273.300,368.850 272.200 C 369.354 271.100,369.789 270.110,369.818 270.000 C 369.960 269.445,370.503 268.117,370.852 267.469 C 371.378 266.492,373.928 258.539,374.241 256.900 C 374.377 256.185,374.657 255.600,374.862 255.600 C 375.067 255.600,375.185 255.375,375.124 255.100 C 375.062 254.825,375.216 254.060,375.464 253.400 C 376.372 250.991,378.889 239.546,379.775 233.800 C 379.842 233.360,379.948 232.910,380.010 232.800 C 380.138 232.571,380.164 232.441,380.559 230.000 C 380.720 229.010,380.916 227.840,380.995 227.400 C 381.074 226.960,381.153 226.407,381.169 226.171 C 381.186 225.936,382.103 225.334,383.207 224.835 C 384.311 224.336,385.436 223.719,385.708 223.464 C 385.979 223.209,386.920 222.385,387.800 221.633 C 390.476 219.347,393.457 215.305,394.193 212.966 C 394.568 211.775,395.017 210.800,395.192 210.800 C 395.643 210.800,396.117 207.543,396.213 203.780 C 396.296 200.478,395.693 196.400,395.121 196.400 C 394.944 196.400,394.800 196.235,394.800 196.033 C 394.800 195.831,394.411 194.796,393.935 193.733 C 393.459 192.670,393.091 191.686,393.119 191.548 C 393.146 191.409,392.815 190.976,392.384 190.586 C 391.953 190.195,391.597 189.679,391.594 189.438 C 391.591 189.197,390.494 188.010,389.157 186.800 C 386.262 184.182,385.006 182.910,382.510 180.072 C 380.661 177.969,380.510 177.655,380.325 175.500 C 380.272 174.895,380.080 174.400,379.897 174.400 C 379.715 174.400,379.607 174.175,379.658 173.900 C 379.709 173.625,379.634 172.860,379.491 172.200 C 379.348 171.540,379.140 170.370,379.028 169.600 C 378.805 168.063,378.416 166.151,377.401 161.600 C 376.534 157.715,376.536 157.722,375.847 155.537 C 375.524 154.512,375.367 153.567,375.497 153.437 C 375.627 153.306,375.504 153.200,375.224 153.200 C 374.935 153.200,374.814 152.940,374.945 152.600 C 375.071 152.270,375.023 152.000,374.837 152.000 C 374.558 152.000,374.265 151.087,373.970 149.298 C 373.943 149.134,373.766 148.710,373.576 148.355 C 373.386 148.000,373.138 147.183,373.024 146.539 C 372.911 145.894,372.346 144.115,371.770 142.584 C 371.193 141.053,370.628 139.395,370.514 138.900 C 370.400 138.405,370.118 138.000,369.887 138.000 C 369.656 138.000,369.568 137.899,369.692 137.775 C 369.816 137.651,369.398 136.526,368.764 135.275 C 368.129 134.024,367.608 132.721,367.605 132.380 C 367.602 132.039,367.384 131.544,367.120 131.280 C 366.856 131.016,366.778 130.800,366.947 130.800 C 367.116 130.800,366.870 130.260,366.400 129.600 C 365.930 128.940,365.670 128.400,365.822 128.400 C 365.974 128.400,365.874 128.130,365.600 127.800 C 365.326 127.470,365.236 127.200,365.400 127.200 C 365.564 127.200,365.451 126.908,365.149 126.552 C 364.847 126.196,363.574 123.811,362.319 121.252 C 361.065 118.693,360.026 116.780,360.010 117.000 C 359.995 117.220,359.432 116.320,358.759 115.000 C 358.086 113.680,357.120 111.790,356.612 110.800 C 356.104 109.810,355.132 108.370,354.451 107.600 C 353.770 106.830,353.210 106.030,353.206 105.822 C 353.199 105.364,351.123 102.255,350.700 102.067 C 350.535 101.993,350.400 101.678,350.400 101.367 C 350.400 101.055,350.235 100.800,350.033 100.800 C 349.831 100.800,349.251 100.125,348.745 99.300 C 348.239 98.475,347.505 97.451,347.113 97.025 C 346.721 96.598,346.400 96.019,346.400 95.739 C 346.400 95.458,346.050 95.041,345.622 94.812 C 344.855 94.401,344.856 94.365,345.685 92.098 C 346.982 88.552,346.912 78.851,345.571 76.345 C 345.336 75.907,345.071 75.168,344.981 74.703 C 344.892 74.239,344.680 73.756,344.509 73.629 C 344.339 73.503,343.849 72.770,343.420 72.000 C 342.271 69.937,342.047 69.690,337.193 65.123 C 336.420 64.396,334.678 62.531,333.323 60.980 C 331.808 59.246,330.038 57.717,328.729 57.011 C 327.558 56.380,326.510 55.731,326.400 55.569 C 325.073 53.623,313.590 52.535,308.790 53.900 L 306.180 54.643 303.190 52.507 C 301.546 51.332,298.661 49.334,296.779 48.066 C 294.898 46.798,292.738 45.303,291.979 44.743 C 291.221 44.183,289.340 43.037,287.800 42.197 C 286.260 41.356,284.910 40.542,284.800 40.388 C 284.545 40.029,269.598 32.400,269.150 32.400 C 268.966 32.400,267.237 31.659,265.308 30.754 C 263.378 29.848,259.370 28.305,256.400 27.325 C 253.430 26.344,250.444 25.290,249.765 24.983 C 248.439 24.383,241.379 22.532,235.200 21.165 C 233.110 20.703,230.320 20.077,229.000 19.774 C 227.680 19.472,225.304 19.042,223.721 18.819 C 221.384 18.490,220.616 18.193,219.641 17.240 C 218.981 16.595,218.117 15.963,217.720 15.836 C 217.324 15.709,216.506 14.822,215.903 13.865 C 211.242 6.472,199.777 2.026,190.914 4.174 M198.227 15.231 C 203.868 16.255,208.090 20.840,208.683 26.584 L 208.902 28.708 213.351 29.188 C 244.720 32.572,275.930 45.456,300.158 65.022 C 302.322 66.770,304.325 68.368,304.609 68.574 C 304.969 68.836,305.583 68.546,306.642 67.617 C 318.531 57.179,335.563 74.343,324.543 85.655 L 323.125 87.111 327.181 92.196 C 347.093 117.157,358.802 146.360,362.705 180.800 L 363.000 183.400 365.620 183.626 C 380.981 184.948,380.986 207.398,365.625 208.770 L 363.051 209.000 362.165 216.000 C 358.088 248.216,346.801 275.480,327.116 300.664 C 324.645 303.826,323.594 305.472,323.839 305.799 C 324.038 306.064,324.790 307.061,325.510 308.015 C 334.524 319.942,317.911 334.678,306.624 324.767 L 305.225 323.539 301.912 326.301 C 300.091 327.820,297.135 330.167,295.344 331.516 L 292.088 333.969 300.073 358.084 C 311.446 392.435,311.977 394.468,310.448 397.800 C 307.392 404.464,297.581 405.115,294.444 398.862 C 293.142 396.265,288.081 380.370,281.815 359.200 C 277.538 344.746,277.184 343.600,276.995 343.600 C 276.897 343.600,273.527 345.204,269.508 347.165 C 252.046 355.684,235.042 360.774,215.747 363.258 L 208.895 364.140 208.657 366.146 C 206.932 380.717,185.058 380.631,183.331 366.046 L 183.089 364.000 181.581 364.000 C 163.820 364.000,130.349 353.500,110.400 341.671 C 108.530 340.562,106.887 339.777,106.748 339.927 C 106.610 340.077,105.103 344.700,103.401 350.200 C 99.293 363.469,97.783 367.560,96.482 368.947 C 91.681 374.066,82.235 371.325,80.943 364.439 C 80.499 362.071,81.669 357.889,89.343 334.408 C 91.361 328.234,91.407 328.724,88.596 326.500 C 86.046 324.483,86.033 324.482,84.016 325.943 C 73.053 333.884,59.068 319.827,66.411 308.247 C 67.185 307.027,67.503 306.152,67.280 305.861 C 67.087 305.607,65.761 303.960,64.333 302.200 C 44.062 277.203,30.219 243.633,27.797 213.600 C 27.418 208.910,27.375 208.800,25.892 208.800 C 18.501 208.798,12.559 198.343,15.861 191.151 C 17.616 187.328,22.551 183.600,25.856 183.600 C 27.368 183.600,27.409 183.504,27.806 179.000 C 30.546 147.959,43.711 116.275,64.787 90.000 L 67.835 86.200 66.528 84.271 C 62.235 77.934,64.478 69.298,71.357 65.682 C 75.343 63.586,82.789 64.495,85.174 67.369 C 85.953 68.307,86.051 68.259,90.287 64.860 C 115.257 44.828,149.394 31.078,179.450 28.948 L 183.100 28.689 183.318 26.575 C 183.896 20.968,188.135 16.315,193.653 15.231 C 194.614 15.042,195.502 14.868,195.627 14.844 C 195.751 14.820,196.921 14.994,198.227 15.231 M183.600 41.071 C 65.411 49.698,-0.135 183.548,65.421 282.400 C 73.216 294.154,94.045 317.236,95.341 315.557 C 95.407 315.470,96.776 311.530,98.383 306.800 C 103.502 291.731,117.782 250.233,122.195 237.600 C 124.539 230.890,128.140 220.540,130.196 214.600 C 132.252 208.660,135.584 199.120,137.601 193.400 C 139.619 187.680,142.048 180.750,142.999 178.000 C 143.951 175.250,146.291 168.590,148.200 163.200 C 150.109 157.810,152.448 151.150,153.398 148.400 C 154.349 145.650,156.600 139.260,158.401 134.200 C 162.276 123.311,162.023 124.742,160.594 121.800 C 155.257 110.819,167.123 90.238,175.726 95.554 C 183.217 100.184,178.881 121.010,169.477 125.563 C 167.862 126.345,167.746 126.521,167.038 129.292 C 166.629 130.891,165.348 135.530,164.191 139.600 C 163.034 143.670,160.701 151.950,159.006 158.000 C 157.311 164.050,154.603 173.680,152.987 179.400 C 151.371 185.120,148.860 194.030,147.407 199.200 C 145.954 204.370,144.062 211.030,143.203 214.000 C 142.344 216.970,139.368 227.410,136.591 237.200 C 127.783 268.247,116.111 308.694,112.540 320.545 C 110.388 327.689,110.154 326.950,115.581 330.171 C 159.783 356.409,214.853 359.116,261.200 337.329 C 269.460 333.447,273.288 331.156,273.081 330.220 C 272.980 329.769,271.153 323.370,269.019 316.000 C 266.886 308.630,262.443 293.150,259.146 281.600 C 255.850 270.050,252.270 257.540,251.192 253.800 C 250.114 250.060,247.862 242.140,246.188 236.200 C 244.514 230.260,242.178 221.980,240.998 217.800 C 239.817 213.620,237.682 206.060,236.253 201.000 C 234.825 195.940,232.273 186.850,230.583 180.800 C 228.894 174.750,226.745 167.129,225.809 163.865 L 224.107 157.929 222.101 156.784 C 212.417 151.253,208.890 131.027,216.874 126.810 C 225.589 122.207,236.396 142.334,231.315 153.706 L 230.285 156.012 232.111 161.306 C 233.115 164.218,235.405 170.740,237.199 175.800 C 238.994 180.860,241.242 187.250,242.196 190.000 C 243.150 192.750,245.491 199.410,247.400 204.800 C 249.309 210.190,251.648 216.850,252.599 219.600 C 253.550 222.350,256.876 231.890,259.990 240.800 C 263.104 249.710,267.333 261.860,269.388 267.800 C 271.443 273.740,274.289 281.930,275.711 286.000 C 277.134 290.070,280.420 299.610,283.013 307.200 C 285.607 314.790,287.785 321.070,287.854 321.156 C 288.521 321.988,304.186 307.985,310.476 300.934 C 354.395 251.701,363.315 182.601,333.241 124.584 C 304.747 69.615,245.505 36.553,183.600 41.071 M217.912 59.100 L 218.023 64.400 195.212 64.400 L 172.400 64.400 172.400 59.267 C 172.400 56.443,172.521 54.012,172.670 53.863 C 172.818 53.715,183.033 53.640,195.370 53.697 L 217.800 53.800 217.912 59.100 " stroke="none" fill="#d2d2d3" fill-rule="evenodd"></path><path id="path1" d="M169.792 95.722 C 161.916 99.473,157.212 114.332,161.251 122.700 L 162.071 124.399 160.672 128.500 C 159.259 132.640,156.918 139.302,150.587 157.200 C 148.680 162.590,146.343 169.250,145.394 172.000 C 144.445 174.750,141.296 183.750,138.397 192.000 C 135.498 200.250,132.259 209.520,131.199 212.600 C 130.139 215.680,126.634 225.760,123.410 235.000 C 120.186 244.240,113.317 264.130,108.147 279.200 C 102.977 294.270,97.157 311.190,95.213 316.800 C 93.270 322.410,91.471 327.810,91.215 328.800 C 90.959 329.790,89.513 334.380,88.001 339.000 C 80.702 361.308,80.236 363.427,81.914 366.661 C 84.195 371.054,89.312 372.751,93.874 370.626 C 97.300 369.031,97.216 369.230,105.769 342.400 C 107.417 337.230,109.240 331.290,109.820 329.200 C 110.399 327.110,112.106 321.170,113.613 316.000 C 115.120 310.830,117.370 303.090,118.613 298.800 C 129.439 261.450,148.691 193.800,159.991 153.400 C 161.776 147.020,164.246 138.275,165.479 133.967 L 167.723 126.133 169.482 125.200 C 182.181 118.463,182.484 89.677,169.792 95.722 M216.558 127.160 C 209.160 131.672,213.372 152.333,222.601 156.801 C 224.650 157.793,223.950 155.907,228.992 174.000 C 230.678 180.050,232.845 187.790,233.807 191.200 C 234.769 194.610,237.558 204.510,240.006 213.200 C 246.178 235.110,251.769 254.802,259.200 280.800 C 262.689 293.010,267.358 309.390,269.575 317.200 C 271.792 325.010,274.417 334.100,275.408 337.400 C 278.118 346.429,282.545 361.152,285.450 370.800 C 292.274 393.466,294.276 399.023,296.238 400.750 C 301.874 405.711,310.886 401.940,310.924 394.605 C 310.940 391.599,300.842 359.581,289.730 327.400 C 288.515 323.880,283.747 310.110,279.135 296.800 C 274.523 283.490,268.975 267.470,266.806 261.200 C 264.638 254.930,261.122 244.850,258.994 238.800 C 256.866 232.750,254.350 225.550,253.403 222.800 C 252.456 220.050,249.396 211.320,246.603 203.400 C 239.229 182.491,234.642 169.465,232.119 162.270 L 229.900 155.939 231.001 153.764 C 236.415 143.063,224.990 122.019,216.558 127.160 " stroke="none" fill="#a47c54" fill-rule="evenodd"></path><path id="path2" d="M192.797 15.550 C 187.930 17.146,184.200 21.504,183.720 26.155 L 183.509 28.200 195.954 28.219 L 208.400 28.239 208.400 26.791 C 208.400 19.788,199.477 13.360,192.797 15.550 M172.670 54.263 C 172.298 54.635,172.327 64.000,172.700 64.001 C 172.865 64.001,172.944 61.841,172.876 59.201 L 172.753 54.400 195.200 54.400 L 217.647 54.400 217.524 59.201 C 217.456 61.841,217.541 64.001,217.712 64.001 C 217.884 64.000,217.974 61.795,217.912 59.100 L 217.800 54.200 195.370 54.097 C 183.033 54.040,172.818 54.115,172.670 54.263 M73.197 65.151 C 66.010 67.501,62.500 75.827,65.818 82.659 C 67.582 86.290,67.213 86.447,74.687 78.892 C 78.379 75.161,82.366 71.272,83.547 70.251 C 85.996 68.132,85.960 67.913,82.860 66.097 C 80.934 64.968,75.411 64.427,73.197 65.151 M310.600 65.433 C 309.720 65.746,308.190 66.701,307.200 67.554 L 305.401 69.106 308.400 71.830 C 312.153 75.237,316.115 79.219,320.070 83.558 L 323.131 86.916 324.207 85.758 C 333.166 76.120,323.045 61.002,310.600 65.433 M24.433 184.256 C 11.588 187.587,12.485 206.257,25.600 208.554 L 27.000 208.799 26.941 196.373 C 26.872 182.079,27.176 183.545,24.433 184.256 M363.559 183.648 C 363.537 183.732,363.492 189.425,363.459 196.300 L 363.400 208.800 364.480 208.800 C 377.860 208.800,381.772 190.227,369.532 184.818 C 367.961 184.124,363.658 183.281,363.559 183.648 M314.376 314.843 L 305.751 323.595 306.776 324.575 C 317.768 335.088,334.881 318.198,324.481 307.100 C 323.148 305.678,324.203 304.869,314.376 314.843 M66.606 308.391 C 59.391 318.803,71.580 332.358,82.780 326.376 C 86.051 324.630,86.048 324.696,82.966 321.957 C 81.445 320.605,77.395 316.633,73.968 313.130 L 67.735 306.762 66.606 308.391 M183.600 365.685 C 183.600 369.576,187.606 374.873,191.536 376.179 C 199.430 378.801,208.400 373.281,208.400 365.802 L 208.400 364.546 196.000 364.573 L 183.600 364.600 183.600 365.685 " stroke="none" fill="#646464" fill-rule="evenodd"></path><path id="path3" d="M200.033 15.749 C 200.445 16.117,202.800 17.200,202.800 17.021 C 202.800 16.790,200.582 15.600,200.153 15.600 C 199.996 15.600,199.942 15.667,200.033 15.749 M188.960 17.146 C 188.102 17.776,186.952 18.811,186.405 19.446 C 185.700 20.265,185.874 20.175,187.005 19.139 C 187.882 18.336,189.230 17.301,190.000 16.841 C 190.770 16.380,191.202 16.002,190.960 16.001 C 190.718 16.001,189.818 16.516,188.960 17.146 M204.986 19.200 C 206.064 20.410,207.027 21.490,207.127 21.600 C 207.227 21.710,207.118 21.440,206.886 21.000 C 206.653 20.560,205.690 19.480,204.745 18.600 C 203.051 17.023,203.055 17.031,204.986 19.200 M184.581 22.037 C 184.229 22.718,184.012 23.345,184.099 23.432 C 184.186 23.519,184.556 22.962,184.922 22.195 C 185.744 20.470,185.459 20.338,184.581 22.037 M183.267 27.041 L 183.200 28.682 179.500 28.944 C 149.392 31.078,115.275 44.813,90.287 64.860 C 86.057 68.254,85.952 68.306,85.182 67.378 C 84.898 67.036,84.291 66.566,83.833 66.334 C 83.375 66.102,83.628 66.451,84.396 67.109 L 85.792 68.305 83.596 70.207 C 82.388 71.252,78.379 75.161,74.687 78.892 C 68.746 84.898,67.896 85.618,67.287 85.160 C 66.642 84.675,66.641 84.689,67.273 85.380 C 67.911 86.079,67.788 86.311,64.842 89.958 C 14.427 152.376,14.216 240.398,64.333 302.200 C 65.761 303.960,67.096 305.619,67.301 305.886 C 67.548 306.207,67.384 306.816,66.815 307.686 L 65.956 309.000 66.859 307.895 L 67.763 306.791 73.981 313.134 C 79.963 319.236,85.826 324.800,86.274 324.800 C 86.526 324.800,90.486 328.031,90.845 328.528 C 90.979 328.715,92.083 325.930,93.299 322.340 L 95.508 315.811 94.654 315.214 C 90.510 312.318,79.786 301.352,73.714 293.800 C 24.636 232.766,28.718 144.329,83.200 88.249 C 144.024 25.642,243.603 24.808,305.212 86.390 C 354.207 135.364,364.897 210.376,331.571 271.354 C 321.619 289.565,305.375 308.514,290.163 319.657 L 287.727 321.442 289.910 327.703 L 292.094 333.964 295.347 331.514 C 297.136 330.166,300.099 327.813,301.930 326.286 L 305.261 323.509 306.530 324.646 L 307.800 325.783 306.783 324.683 L 305.765 323.583 314.538 314.770 L 323.311 305.956 324.555 307.078 L 325.800 308.200 324.700 306.978 C 323.260 305.378,323.091 305.814,327.177 300.586 C 350.997 270.112,363.178 234.873,363.397 195.800 C 363.434 189.200,363.336 183.620,363.181 183.400 C 363.025 183.180,362.775 181.740,362.625 180.200 C 359.532 148.372,346.832 116.829,327.205 92.226 C 324.942 89.389,323.293 86.974,323.448 86.723 C 323.603 86.472,323.544 86.387,323.314 86.529 C 323.089 86.669,322.002 85.751,320.899 84.491 C 317.944 81.115,311.826 74.910,308.400 71.816 L 305.401 69.106 307.200 67.487 C 308.190 66.597,308.640 66.114,308.200 66.414 C 307.760 66.714,306.898 67.414,306.285 67.969 C 305.491 68.688,305.016 68.866,304.632 68.589 C 304.336 68.375,302.322 66.770,300.158 65.022 C 275.913 45.442,244.727 32.573,213.300 29.182 L 208.800 28.696 208.733 27.048 C 208.666 25.420,208.664 25.417,208.513 26.819 L 208.361 28.239 195.999 28.219 L 183.637 28.200 183.486 26.800 C 183.338 25.435,183.333 25.441,183.267 27.041 M172.662 53.900 C 172.560 54.065,182.702 54.200,195.200 54.200 C 207.698 54.200,217.840 54.065,217.738 53.900 C 217.496 53.508,172.904 53.508,172.662 53.900 M183.700 64.300 C 190.025 64.362,200.375 64.362,206.700 64.300 C 213.025 64.238,207.850 64.187,195.200 64.187 C 182.550 64.187,177.375 64.238,183.700 64.300 M75.491 64.689 C 76.201 64.777,77.461 64.779,78.291 64.692 C 79.121 64.605,78.540 64.533,77.000 64.531 C 75.460 64.529,74.781 64.600,75.491 64.689 M313.900 64.689 C 314.615 64.778,315.785 64.778,316.500 64.689 C 317.215 64.601,316.630 64.528,315.200 64.528 C 313.770 64.528,313.185 64.601,313.900 64.689 M68.000 68.200 C 67.028 69.190,66.323 70.000,66.433 70.000 C 66.543 70.000,67.428 69.190,68.400 68.200 C 69.372 67.210,70.077 66.400,69.967 66.400 C 69.857 66.400,68.972 67.210,68.000 68.200 M322.800 66.925 C 322.800 66.994,323.385 67.579,324.100 68.225 L 325.400 69.400 324.225 68.100 C 323.130 66.888,322.800 66.616,322.800 66.925 M325.530 70.100 C 325.821 70.460,326.398 71.619,326.811 72.677 C 327.224 73.735,327.567 74.330,327.573 74.000 C 327.587 73.108,326.165 70.148,325.542 69.773 C 325.090 69.501,325.088 69.555,325.530 70.100 M327.724 77.000 C 327.726 78.320,327.801 78.812,327.890 78.093 C 327.979 77.374,327.977 76.294,327.886 75.693 C 327.795 75.092,327.722 75.680,327.724 77.000 M326.619 81.940 C 326.480 82.380,325.901 83.423,325.334 84.259 C 324.760 85.105,324.604 85.529,324.981 85.216 C 325.765 84.565,327.348 81.614,327.064 81.331 C 326.959 81.226,326.759 81.500,326.619 81.940 M169.500 95.429 C 168.895 95.757,168.400 96.114,168.400 96.223 C 168.400 96.332,168.895 96.171,169.500 95.865 C 170.105 95.560,170.870 95.209,171.200 95.086 C 171.733 94.888,171.733 94.861,171.200 94.848 C 170.870 94.839,170.105 95.101,169.500 95.429 M166.108 98.100 C 164.453 99.795,161.590 104.173,161.611 104.976 C 161.617 105.209,162.201 104.330,162.911 103.023 C 163.620 101.716,165.073 99.691,166.140 98.523 C 168.462 95.982,168.441 95.709,166.108 98.100 M179.344 105.600 C 179.344 107.690,179.412 108.545,179.494 107.500 C 179.576 106.455,179.576 104.745,179.494 103.700 C 179.412 102.655,179.344 103.510,179.344 105.600 M159.693 112.000 C 159.693 112.770,159.775 113.085,159.876 112.700 C 159.976 112.315,159.976 111.685,159.876 111.300 C 159.775 110.915,159.693 111.230,159.693 112.000 M159.320 115.600 C 159.320 116.810,159.395 117.305,159.487 116.700 C 159.578 116.095,159.578 115.105,159.487 114.500 C 159.395 113.895,159.320 114.390,159.320 115.600 M159.627 118.640 C 159.600 119.493,160.394 122.141,160.611 121.920 C 160.676 121.854,160.487 120.900,160.192 119.800 C 159.896 118.700,159.642 118.178,159.627 118.640 M172.975 122.454 C 172.329 123.143,171.000 124.223,170.022 124.854 C 169.044 125.484,168.432 126.000,168.662 126.000 C 169.246 126.000,171.967 123.951,173.375 122.452 C 174.021 121.763,174.460 121.200,174.350 121.200 C 174.240 121.200,173.621 121.764,172.975 122.454 M218.500 126.276 C 218.885 126.376,219.515 126.376,219.900 126.276 C 220.285 126.175,219.970 126.093,219.200 126.093 C 218.430 126.093,218.115 126.175,218.500 126.276 M215.123 127.900 C 214.418 128.721,213.890 129.600,214.101 129.600 C 214.183 129.600,214.649 129.060,215.137 128.400 C 216.101 127.096,216.092 126.772,215.123 127.900 M225.385 129.545 C 226.477 130.675,227.427 131.600,227.497 131.600 C 227.889 131.600,225.722 129.149,224.657 128.388 C 223.771 127.755,223.987 128.097,225.385 129.545 M159.446 131.046 C 159.092 132.085,158.872 133.005,158.956 133.090 C 159.041 133.174,159.400 132.393,159.754 131.354 C 160.108 130.315,160.328 129.395,160.244 129.310 C 160.159 129.226,159.800 130.007,159.446 131.046 M228.600 133.600 C 228.941 134.260,229.311 134.800,229.421 134.800 C 229.531 134.800,229.341 134.260,229.000 133.600 C 228.659 132.940,228.289 132.400,228.179 132.400 C 228.069 132.400,228.259 132.940,228.600 133.600 M165.429 133.829 C 165.281 134.415,165.238 134.972,165.332 135.066 C 165.427 135.160,165.624 134.758,165.771 134.171 C 165.919 133.585,165.962 133.028,165.868 132.934 C 165.773 132.840,165.576 133.242,165.429 133.829 M212.493 135.200 C 212.493 135.970,212.575 136.285,212.676 135.900 C 212.776 135.515,212.776 134.885,212.676 134.500 C 212.575 134.115,212.493 134.430,212.493 135.200 M229.633 135.200 C 229.617 135.310,230.049 136.480,230.592 137.800 C 231.136 139.120,231.583 139.930,231.585 139.600 C 231.589 139.036,229.697 134.770,229.633 135.200 M164.250 138.050 C 163.875 139.398,163.640 140.574,163.728 140.662 C 163.816 140.750,164.197 139.721,164.575 138.375 C 164.953 137.029,165.187 135.854,165.097 135.763 C 165.006 135.673,164.625 136.702,164.250 138.050 M212.501 139.000 C 212.505 139.880,212.587 140.193,212.683 139.695 C 212.779 139.198,212.775 138.478,212.675 138.095 C 212.575 137.713,212.496 138.120,212.501 139.000 M154.447 145.247 C 153.984 146.618,153.674 147.808,153.758 147.892 C 153.843 147.976,154.290 146.923,154.753 145.553 C 155.216 144.182,155.526 142.992,155.442 142.908 C 155.357 142.824,154.910 143.877,154.447 145.247 M232.520 147.200 C 232.520 148.410,232.595 148.905,232.687 148.300 C 232.778 147.695,232.778 146.705,232.687 146.100 C 232.595 145.495,232.520 145.990,232.520 147.200 M214.409 146.913 C 214.393 147.464,216.289 150.978,217.058 151.823 C 217.466 152.271,217.650 152.413,217.466 152.137 C 217.283 151.862,216.522 150.504,215.775 149.119 C 215.029 147.733,214.414 146.741,214.409 146.913 M159.829 153.829 C 159.681 154.415,159.638 154.972,159.732 155.066 C 159.827 155.160,160.024 154.758,160.171 154.171 C 160.319 153.585,160.362 153.028,160.268 152.934 C 160.173 152.840,159.976 153.242,159.829 153.829 M219.200 154.600 C 219.946 155.370,220.647 156.000,220.757 156.000 C 220.867 156.000,220.346 155.370,219.600 154.600 C 218.854 153.830,218.153 153.200,218.043 153.200 C 217.933 153.200,218.454 153.830,219.200 154.600 M230.389 154.821 C 230.147 155.272,230.006 155.914,230.075 156.246 C 230.144 156.579,230.398 156.209,230.640 155.425 C 231.135 153.823,231.042 153.600,230.389 154.821 M159.029 156.629 C 158.881 157.215,158.838 157.772,158.932 157.866 C 159.027 157.960,159.224 157.558,159.371 156.971 C 159.519 156.385,159.562 155.828,159.468 155.734 C 159.373 155.640,159.176 156.042,159.029 156.629 M230.654 158.000 C 230.789 158.550,231.145 159.540,231.445 160.200 C 231.884 161.164,231.943 161.203,231.746 160.400 C 231.611 159.850,231.255 158.860,230.955 158.200 C 230.516 157.236,230.457 157.197,230.654 158.000 M149.446 159.446 C 149.092 160.485,148.872 161.405,148.956 161.490 C 149.041 161.574,149.400 160.793,149.754 159.754 C 150.108 158.715,150.328 157.795,150.244 157.710 C 150.159 157.626,149.800 158.407,149.446 159.446 M158.229 159.429 C 158.081 160.015,158.038 160.572,158.132 160.666 C 158.227 160.760,158.424 160.358,158.571 159.771 C 158.719 159.185,158.762 158.628,158.668 158.534 C 158.573 158.440,158.376 158.842,158.229 159.429 M224.621 159.400 C 224.731 160.060,225.172 161.680,225.601 163.000 C 226.029 164.320,226.290 164.860,226.179 164.200 C 226.069 163.540,225.628 161.920,225.199 160.600 C 224.771 159.280,224.510 158.740,224.621 159.400 M233.829 167.200 C 233.976 167.750,234.264 168.470,234.467 168.800 C 234.725 169.217,234.757 169.095,234.571 168.400 C 234.424 167.850,234.136 167.130,233.933 166.800 C 233.675 166.383,233.643 166.505,233.829 167.200 M155.429 169.429 C 155.281 170.015,155.238 170.572,155.332 170.666 C 155.427 170.760,155.624 170.358,155.771 169.771 C 155.919 169.185,155.962 168.628,155.868 168.534 C 155.773 168.440,155.576 168.842,155.429 169.429 M235.454 171.600 C 235.589 172.150,235.945 173.140,236.245 173.800 C 236.684 174.764,236.743 174.803,236.546 174.000 C 236.411 173.450,236.055 172.460,235.755 171.800 C 235.316 170.836,235.257 170.797,235.454 171.600 M154.250 173.650 C 153.875 174.998,153.640 176.174,153.728 176.262 C 153.816 176.350,154.197 175.321,154.575 173.975 C 154.953 172.629,155.187 171.454,155.097 171.363 C 155.006 171.273,154.625 172.302,154.250 173.650 M144.047 174.847 C 143.584 176.218,143.274 177.408,143.358 177.492 C 143.443 177.576,143.890 176.523,144.353 175.153 C 144.816 173.782,145.126 172.592,145.042 172.508 C 144.957 172.424,144.510 173.477,144.047 174.847 M229.256 176.000 C 229.256 176.330,229.411 176.960,229.600 177.400 C 229.817 177.904,229.944 177.978,229.944 177.600 C 229.944 177.270,229.789 176.640,229.600 176.200 C 229.383 175.696,229.256 175.622,229.256 176.000 M230.056 178.800 C 230.056 179.130,230.211 179.760,230.400 180.200 C 230.617 180.704,230.744 180.778,230.744 180.400 C 230.744 180.070,230.589 179.440,230.400 179.000 C 230.183 178.496,230.056 178.422,230.056 178.800 M230.856 181.600 C 230.856 181.930,231.011 182.560,231.200 183.000 C 231.417 183.504,231.544 183.578,231.544 183.200 C 231.544 182.870,231.389 182.240,231.200 181.800 C 230.983 181.296,230.856 181.222,230.856 181.600 M239.029 182.000 C 239.176 182.550,239.464 183.270,239.667 183.600 C 239.925 184.017,239.957 183.895,239.771 183.200 C 239.624 182.650,239.336 181.930,239.133 181.600 C 238.875 181.183,238.843 181.305,239.029 182.000 M23.400 184.186 C 21.859 184.891,22.126 184.896,24.600 184.209 C 25.811 183.873,26.206 183.650,25.600 183.645 C 25.050 183.640,24.060 183.883,23.400 184.186 M240.099 184.900 C 240.200 185.175,240.598 186.357,240.982 187.526 C 241.367 188.695,241.752 189.581,241.838 189.495 C 242.041 189.293,240.392 184.400,240.120 184.400 C 240.007 184.400,239.997 184.625,240.099 184.900 M18.269 187.576 C 16.906 189.085,15.595 191.203,15.605 191.880 C 15.607 192.056,16.070 191.390,16.632 190.400 C 17.195 189.410,18.218 188.015,18.906 187.300 C 19.594 186.585,20.053 186.000,19.925 186.000 C 19.797 186.000,19.052 186.709,18.269 187.576 M150.229 187.829 C 150.081 188.415,150.038 188.972,150.132 189.066 C 150.227 189.160,150.424 188.758,150.571 188.171 C 150.719 187.585,150.762 187.028,150.668 186.934 C 150.573 186.840,150.376 187.242,150.229 187.829 M138.847 189.647 C 138.384 191.018,138.074 192.208,138.158 192.292 C 138.243 192.376,138.690 191.323,139.153 189.953 C 139.616 188.582,139.926 187.392,139.842 187.308 C 139.757 187.224,139.310 188.277,138.847 189.647 M149.050 192.050 C 148.675 193.398,148.440 194.574,148.528 194.662 C 148.616 194.750,148.997 193.721,149.375 192.375 C 149.753 191.029,149.987 189.854,149.897 189.763 C 149.806 189.673,149.425 190.702,149.050 192.050 M14.924 196.200 C 14.926 197.520,15.001 198.012,15.090 197.293 C 15.179 196.574,15.177 195.494,15.086 194.893 C 14.995 194.292,14.922 194.880,14.924 196.200 M234.650 195.200 C 234.790 195.970,235.061 196.960,235.254 197.400 C 235.494 197.949,235.524 197.761,235.350 196.800 C 235.210 196.030,234.939 195.040,234.746 194.600 C 234.506 194.051,234.476 194.239,234.650 195.200 M135.446 199.446 C 135.092 200.485,134.872 201.405,134.956 201.490 C 135.041 201.574,135.400 200.793,135.754 199.754 C 136.108 198.715,136.328 197.795,136.244 197.710 C 136.159 197.626,135.800 198.407,135.446 199.446 M235.656 198.800 C 235.656 199.130,235.811 199.760,236.000 200.200 C 236.217 200.704,236.344 200.778,236.344 200.400 C 236.344 200.070,236.189 199.440,236.000 199.000 C 235.783 198.496,235.656 198.422,235.656 198.800 M245.454 200.000 C 245.589 200.550,245.945 201.540,246.245 202.200 C 246.684 203.164,246.743 203.203,246.546 202.400 C 246.411 201.850,246.055 200.860,245.755 200.200 C 245.316 199.236,245.257 199.197,245.454 200.000 M15.600 200.553 C 15.600 200.982,16.790 203.200,17.021 203.200 C 17.131 203.200,16.923 202.615,16.559 201.900 C 15.817 200.440,15.600 200.136,15.600 200.553 M133.446 205.046 C 133.092 206.085,132.872 207.005,132.956 207.090 C 133.041 207.174,133.400 206.393,133.754 205.354 C 134.108 204.315,134.328 203.395,134.244 203.310 C 134.159 203.226,133.800 204.007,133.446 205.046 M18.400 204.947 C 19.170 205.782,20.160 206.655,20.600 206.887 C 21.040 207.119,21.310 207.225,21.200 207.122 C 18.642 204.743,17.128 203.567,18.400 204.947 M372.400 205.855 C 370.223 207.565,369.953 207.840,371.000 207.282 C 371.871 206.818,374.725 204.430,374.400 204.437 C 374.290 204.439,373.390 205.077,372.400 205.855 M145.029 206.229 C 144.881 206.815,144.838 207.372,144.932 207.466 C 145.027 207.560,145.224 207.158,145.371 206.571 C 145.519 205.985,145.562 205.428,145.468 205.334 C 145.373 205.240,145.176 205.642,145.029 206.229 M143.850 210.450 C 143.475 211.798,143.240 212.974,143.328 213.062 C 143.416 213.150,143.797 212.121,144.175 210.775 C 144.553 209.429,144.787 208.254,144.697 208.163 C 144.606 208.073,144.225 209.102,143.850 210.450 M249.029 210.400 C 249.176 210.950,249.464 211.670,249.667 212.000 C 249.925 212.417,249.957 212.295,249.771 211.600 C 249.624 211.050,249.336 210.330,249.133 210.000 C 248.875 209.583,248.843 209.705,249.029 210.400 M239.256 211.600 C 239.256 211.930,239.411 212.560,239.600 213.000 C 239.817 213.504,239.944 213.578,239.944 213.200 C 239.944 212.870,239.789 212.240,239.600 211.800 C 239.383 211.296,239.256 211.222,239.256 211.600 M129.647 216.047 C 129.184 217.418,128.874 218.608,128.958 218.692 C 129.043 218.776,129.490 217.723,129.953 216.353 C 130.416 214.982,130.726 213.792,130.642 213.708 C 130.557 213.624,130.110 214.677,129.647 216.047 M240.056 214.400 C 240.056 214.730,240.211 215.360,240.400 215.800 C 240.617 216.304,240.744 216.378,240.744 216.000 C 240.744 215.670,240.589 215.040,240.400 214.600 C 240.183 214.096,240.056 214.022,240.056 214.400 M250.654 214.800 C 250.789 215.350,251.145 216.340,251.445 217.000 C 251.884 217.964,251.943 218.003,251.746 217.200 C 251.611 216.650,251.255 215.660,250.955 215.000 C 250.516 214.036,250.457 213.997,250.654 214.800 M240.856 217.200 C 240.856 217.530,241.011 218.160,241.200 218.600 C 241.417 219.104,241.544 219.178,241.544 218.800 C 241.544 218.470,241.389 217.840,241.200 217.400 C 240.983 216.896,240.856 216.822,240.856 217.200 M241.656 220.000 C 241.656 220.330,241.811 220.960,242.000 221.400 C 242.217 221.904,242.344 221.978,242.344 221.600 C 242.344 221.270,242.189 220.640,242.000 220.200 C 241.783 219.696,241.656 219.622,241.656 220.000 M139.829 224.629 C 139.681 225.215,139.638 225.772,139.732 225.866 C 139.827 225.960,140.024 225.558,140.171 224.971 C 140.319 224.385,140.362 223.828,140.268 223.734 C 140.173 223.640,139.976 224.042,139.829 224.629 M254.254 225.200 C 254.389 225.750,254.745 226.740,255.045 227.400 C 255.484 228.364,255.543 228.403,255.346 227.600 C 255.211 227.050,254.855 226.060,254.555 225.400 C 254.116 224.436,254.057 224.397,254.254 225.200 M139.029 227.429 C 138.881 228.015,138.838 228.572,138.932 228.666 C 139.027 228.760,139.224 228.358,139.371 227.771 C 139.519 227.185,139.562 226.628,139.468 226.534 C 139.373 226.440,139.176 226.842,139.029 227.429 M138.229 230.229 C 138.081 230.815,138.038 231.372,138.132 231.466 C 138.227 231.560,138.424 231.158,138.571 230.571 C 138.719 229.985,138.762 229.428,138.668 229.334 C 138.573 229.240,138.376 229.642,138.229 230.229 M244.456 230.000 C 244.456 230.330,244.611 230.960,244.800 231.400 C 245.017 231.904,245.144 231.978,245.144 231.600 C 245.144 231.270,244.989 230.640,244.800 230.200 C 244.583 229.696,244.456 229.622,244.456 230.000 M256.254 230.800 C 256.389 231.350,256.745 232.340,257.045 233.000 C 257.484 233.964,257.543 234.003,257.346 233.200 C 257.211 232.650,256.855 231.660,256.555 231.000 C 256.116 230.036,256.057 229.997,256.254 230.800 M123.647 233.247 C 123.184 234.618,122.874 235.808,122.958 235.892 C 123.043 235.976,123.490 234.923,123.953 233.553 C 124.416 232.182,124.726 230.992,124.642 230.908 C 124.557 230.824,124.110 231.877,123.647 233.247 M245.256 232.800 C 245.256 233.130,245.411 233.760,245.600 234.200 C 245.817 234.704,245.944 234.778,245.944 234.400 C 245.944 234.070,245.789 233.440,245.600 233.000 C 245.383 232.496,245.256 232.422,245.256 232.800 M246.056 235.600 C 246.056 235.930,246.211 236.560,246.400 237.000 C 246.617 237.504,246.744 237.578,246.744 237.200 C 246.744 236.870,246.589 236.240,246.400 235.800 C 246.183 235.296,246.056 235.222,246.056 235.600 M259.854 241.200 C 259.989 241.750,260.345 242.740,260.645 243.400 C 261.084 244.364,261.143 244.403,260.946 243.600 C 260.811 243.050,260.455 242.060,260.155 241.400 C 259.716 240.436,259.657 240.397,259.854 241.200 M119.846 244.246 C 119.492 245.285,119.272 246.205,119.356 246.290 C 119.441 246.374,119.800 245.593,120.154 244.554 C 120.508 243.515,120.728 242.595,120.644 242.510 C 120.559 242.426,120.200 243.207,119.846 244.246 M134.229 244.229 C 134.081 244.815,134.038 245.372,134.132 245.466 C 134.227 245.560,134.424 245.158,134.571 244.571 C 134.719 243.985,134.762 243.428,134.668 243.334 C 134.573 243.240,134.376 243.642,134.229 244.229 M133.429 247.029 C 133.281 247.615,133.238 248.172,133.332 248.266 C 133.427 248.360,133.624 247.958,133.771 247.371 C 133.919 246.785,133.962 246.228,133.868 246.134 C 133.773 246.040,133.576 246.442,133.429 247.029 M249.642 248.200 C 249.621 248.420,250.036 249.950,250.563 251.600 C 251.090 253.250,251.538 254.420,251.558 254.200 C 251.579 253.980,251.164 252.450,250.637 250.800 C 250.110 249.150,249.662 247.980,249.642 248.200 M132.629 249.829 C 132.481 250.415,132.438 250.972,132.532 251.066 C 132.627 251.160,132.824 250.758,132.971 250.171 C 133.119 249.585,133.162 249.028,133.068 248.934 C 132.973 248.840,132.776 249.242,132.629 249.829 M117.644 250.444 C 117.398 251.151,117.266 251.800,117.352 251.885 C 117.438 251.971,117.709 251.462,117.956 250.756 C 118.202 250.049,118.334 249.400,118.248 249.315 C 118.162 249.229,117.891 249.738,117.644 250.444 M265.299 256.900 C 265.400 257.175,265.798 258.357,266.182 259.526 C 266.567 260.695,266.952 261.581,267.038 261.495 C 267.241 261.293,265.592 256.400,265.320 256.400 C 265.207 256.400,265.197 256.625,265.299 256.900 M113.647 262.047 C 113.184 263.418,112.874 264.608,112.958 264.692 C 113.043 264.776,113.490 263.723,113.953 262.353 C 114.416 260.982,114.726 259.792,114.642 259.708 C 114.557 259.624,114.110 260.677,113.647 262.047 M129.429 261.029 C 129.281 261.615,129.238 262.172,129.332 262.266 C 129.427 262.360,129.624 261.958,129.771 261.371 C 129.919 260.785,129.962 260.228,129.868 260.134 C 129.773 260.040,129.576 260.442,129.429 261.029 M128.629 263.829 C 128.481 264.415,128.438 264.972,128.532 265.066 C 128.627 265.160,128.824 264.758,128.971 264.171 C 129.119 263.585,129.162 263.028,129.068 262.934 C 128.973 262.840,128.776 263.242,128.629 263.829 M254.456 265.200 C 254.456 265.530,254.611 266.160,254.800 266.600 C 255.017 267.104,255.144 267.178,255.144 266.800 C 255.144 266.470,254.989 265.840,254.800 265.400 C 254.583 264.896,254.456 264.822,254.456 265.200 M127.829 266.629 C 127.681 267.215,127.638 267.772,127.732 267.866 C 127.827 267.960,128.024 267.558,128.171 266.971 C 128.319 266.385,128.362 265.828,128.268 265.734 C 128.173 265.640,127.976 266.042,127.829 266.629 M255.256 268.000 C 255.256 268.330,255.411 268.960,255.600 269.400 C 255.817 269.904,255.944 269.978,255.944 269.600 C 255.944 269.270,255.789 268.640,255.600 268.200 C 255.383 267.696,255.256 267.622,255.256 268.000 M269.299 268.500 C 269.400 268.775,269.798 269.957,270.182 271.126 C 270.567 272.295,270.952 273.181,271.038 273.095 C 271.241 272.893,269.592 268.000,269.320 268.000 C 269.207 268.000,269.197 268.225,269.299 268.500 M256.056 270.800 C 256.056 271.130,256.211 271.760,256.400 272.200 C 256.617 272.704,256.744 272.778,256.744 272.400 C 256.744 272.070,256.589 271.440,256.400 271.000 C 256.183 270.496,256.056 270.422,256.056 270.800 M109.048 275.448 C 108.476 277.149,108.076 278.609,108.160 278.693 C 108.244 278.777,108.780 277.454,109.352 275.752 C 109.924 274.051,110.324 272.591,110.240 272.507 C 110.156 272.423,109.620 273.746,109.048 275.448 M124.229 279.029 C 124.081 279.615,124.038 280.172,124.132 280.266 C 124.227 280.360,124.424 279.958,124.571 279.371 C 124.719 278.785,124.762 278.228,124.668 278.134 C 124.573 278.040,124.376 278.442,124.229 279.029 M123.429 281.829 C 123.281 282.415,123.238 282.972,123.332 283.066 C 123.427 283.160,123.624 282.758,123.771 282.171 C 123.919 281.585,123.962 281.028,123.868 280.934 C 123.773 280.840,123.576 281.242,123.429 281.829 M122.629 284.629 C 122.481 285.215,122.438 285.772,122.532 285.866 C 122.627 285.960,122.824 285.558,122.971 284.971 C 123.119 284.385,123.162 283.828,123.068 283.734 C 122.973 283.640,122.776 284.042,122.629 284.629 M260.056 284.800 C 260.056 285.130,260.211 285.760,260.400 286.200 C 260.617 286.704,260.744 286.778,260.744 286.400 C 260.744 286.070,260.589 285.440,260.400 285.000 C 260.183 284.496,260.056 284.422,260.056 284.800 M275.299 285.700 C 275.400 285.975,275.798 287.157,276.182 288.326 C 276.567 289.495,276.952 290.381,277.038 290.295 C 277.241 290.093,275.592 285.200,275.320 285.200 C 275.207 285.200,275.197 285.425,275.299 285.700 M104.447 288.847 C 103.984 290.218,103.674 291.408,103.758 291.492 C 103.843 291.576,104.290 290.523,104.753 289.153 C 105.216 287.782,105.526 286.592,105.442 286.508 C 105.357 286.424,104.910 287.477,104.447 288.847 M260.856 287.600 C 260.856 287.930,261.011 288.560,261.200 289.000 C 261.417 289.504,261.544 289.578,261.544 289.200 C 261.544 288.870,261.389 288.240,261.200 287.800 C 260.983 287.296,260.856 287.222,260.856 287.600 M120.229 293.029 C 120.081 293.615,120.038 294.172,120.132 294.266 C 120.227 294.360,120.424 293.958,120.571 293.371 C 120.719 292.785,120.762 292.228,120.668 292.134 C 120.573 292.040,120.376 292.442,120.229 293.029 M119.429 295.829 C 119.281 296.415,119.238 296.972,119.332 297.066 C 119.427 297.160,119.624 296.758,119.771 296.171 C 119.919 295.585,119.962 295.028,119.868 294.934 C 119.773 294.840,119.576 295.242,119.429 295.829 M118.436 299.236 C 118.166 300.139,118.018 300.952,118.108 301.042 C 118.198 301.132,118.493 300.466,118.764 299.564 C 119.034 298.661,119.182 297.848,119.092 297.758 C 119.002 297.668,118.707 298.334,118.436 299.236 M279.699 298.500 C 279.800 298.775,280.198 299.957,280.582 301.126 C 280.967 302.295,281.352 303.181,281.438 303.095 C 281.641 302.893,279.992 298.000,279.720 298.000 C 279.607 298.000,279.597 298.225,279.699 298.500 M264.861 301.600 C 264.861 301.930,265.103 302.830,265.400 303.600 C 265.697 304.370,265.939 304.730,265.939 304.400 C 265.939 304.070,265.697 303.170,265.400 302.400 C 265.103 301.630,264.861 301.270,264.861 301.600 M117.429 302.629 C 117.281 303.215,117.238 303.772,117.332 303.866 C 117.427 303.960,117.624 303.558,117.771 302.971 C 117.919 302.385,117.962 301.828,117.868 301.734 C 117.773 301.640,117.576 302.042,117.429 302.629 M98.648 305.848 C 98.076 307.549,97.676 309.009,97.760 309.093 C 97.844 309.177,98.380 307.854,98.952 306.152 C 99.524 304.451,99.924 302.991,99.840 302.907 C 99.756 302.823,99.220 304.146,98.648 305.848 M266.056 305.600 C 266.056 305.930,266.211 306.560,266.400 307.000 C 266.617 307.504,266.744 307.578,266.744 307.200 C 266.744 306.870,266.589 306.240,266.400 305.800 C 266.183 305.296,266.056 305.222,266.056 305.600 M326.278 309.795 C 326.644 310.562,327.014 311.119,327.101 311.032 C 327.284 310.849,326.070 308.400,325.796 308.400 C 325.695 308.400,325.912 309.028,326.278 309.795 M114.629 312.229 C 114.481 312.815,114.438 313.372,114.532 313.466 C 114.627 313.560,114.824 313.158,114.971 312.571 C 115.119 311.985,115.162 311.428,115.068 311.334 C 114.973 311.240,114.776 311.642,114.629 312.229 M284.654 312.800 C 284.789 313.350,285.145 314.340,285.445 315.000 C 285.884 315.964,285.943 316.003,285.746 315.200 C 285.611 314.650,285.255 313.660,284.955 313.000 C 284.516 312.036,284.457 311.997,284.654 312.800 M327.724 315.400 C 327.726 316.720,327.801 317.212,327.890 316.493 C 327.979 315.774,327.977 314.694,327.886 314.093 C 327.795 313.492,327.722 314.080,327.724 315.400 M113.636 315.636 C 113.366 316.539,113.218 317.352,113.308 317.442 C 113.398 317.532,113.693 316.866,113.964 315.964 C 114.234 315.061,114.382 314.248,114.292 314.158 C 114.202 314.068,113.907 314.734,113.636 315.636 M269.256 316.800 C 269.256 317.130,269.411 317.760,269.600 318.200 C 269.817 318.704,269.944 318.778,269.944 318.400 C 269.944 318.070,269.789 317.440,269.600 317.000 C 269.383 316.496,269.256 316.422,269.256 316.800 M112.629 319.029 C 112.481 319.615,112.438 320.172,112.532 320.266 C 112.627 320.360,112.824 319.958,112.971 319.371 C 113.119 318.785,113.162 318.228,113.068 318.134 C 112.973 318.040,112.776 318.442,112.629 319.029 M270.056 319.600 C 270.056 319.930,270.211 320.560,270.400 321.000 C 270.617 321.504,270.744 321.578,270.744 321.200 C 270.744 320.870,270.589 320.240,270.400 319.800 C 270.183 319.296,270.056 319.222,270.056 319.600 M326.287 320.987 C 325.925 321.745,324.955 323.138,324.129 324.082 C 322.724 325.692,322.712 325.724,323.950 324.600 C 325.289 323.384,327.445 320.111,327.120 319.787 C 327.023 319.690,326.648 320.230,326.287 320.987 M65.964 321.933 C 66.180 322.336,66.671 322.921,67.055 323.233 C 67.487 323.584,67.390 323.304,66.801 322.500 C 65.751 321.065,65.357 320.798,65.964 321.933 M270.856 322.400 C 270.856 322.730,271.011 323.360,271.200 323.800 C 271.417 324.304,271.544 324.378,271.544 324.000 C 271.544 323.670,271.389 323.040,271.200 322.600 C 270.983 322.096,270.856 322.022,270.856 322.400 M308.000 325.817 C 308.000 326.109,311.246 327.652,311.589 327.523 C 311.770 327.456,311.037 327.006,309.959 326.525 C 308.882 326.045,308.000 325.726,308.000 325.817 M320.200 326.626 C 319.100 327.156,318.432 327.592,318.716 327.595 C 319.302 327.601,322.400 326.085,322.400 325.792 C 322.400 325.551,322.556 325.492,320.200 326.626 M109.634 329.929 C 109.103 331.838,108.193 334.855,107.610 336.633 C 106.993 338.520,106.728 339.869,106.976 339.873 C 107.209 339.876,108.840 340.736,110.600 341.783 C 130.240 353.471,163.905 364.000,181.637 364.000 C 183.165 364.000,183.201 364.033,183.264 365.500 C 183.321 366.827,183.346 366.861,183.482 365.800 L 183.636 364.600 195.998 364.573 L 208.360 364.546 208.516 365.773 C 208.666 366.955,208.674 366.948,208.736 365.576 L 208.800 364.152 215.700 363.264 C 235.067 360.771,252.029 355.693,269.560 347.139 C 275.316 344.331,277.003 343.663,277.298 344.074 C 277.557 344.435,277.583 344.348,277.380 343.800 C 276.448 341.271,273.600 331.696,273.600 331.089 C 273.600 330.423,273.535 330.430,272.731 331.178 C 271.295 332.516,259.028 338.497,252.347 341.117 C 211.153 357.269,165.053 355.311,125.905 335.746 C 119.115 332.353,111.381 327.852,110.917 327.024 C 110.709 326.652,110.268 327.651,109.634 329.929 M73.400 327.590 C 74.164 327.928,76.714 328.157,76.367 327.856 C 76.275 327.776,75.390 327.604,74.400 327.473 C 73.198 327.314,72.866 327.353,73.400 327.590 M78.800 327.600 C 77.433 327.888,77.428 327.895,78.600 327.919 C 79.260 327.933,80.160 327.789,80.600 327.600 C 81.562 327.187,80.764 327.187,78.800 327.600 M312.900 327.876 C 313.285 327.976,313.915 327.976,314.300 327.876 C 314.685 327.775,314.370 327.693,313.600 327.693 C 312.830 327.693,312.515 327.775,312.900 327.876 M316.100 327.876 C 316.485 327.976,317.115 327.976,317.500 327.876 C 317.885 327.775,317.570 327.693,316.800 327.693 C 316.030 327.693,315.715 327.775,316.100 327.876 M183.632 367.513 C 183.594 368.126,184.674 370.800,184.959 370.800 C 185.069 370.800,184.922 370.215,184.632 369.500 C 184.341 368.785,184.005 367.930,183.884 367.600 C 183.741 367.211,183.652 367.180,183.632 367.513 M205.226 372.900 C 204.250 374.055,203.953 374.550,204.565 374.000 C 205.596 373.073,207.417 370.800,207.127 370.800 C 207.057 370.800,206.202 371.745,205.226 372.900 M186.000 372.525 C 186.000 372.594,186.585 373.179,187.300 373.825 L 188.600 375.000 187.425 373.700 C 186.330 372.488,186.000 372.216,186.000 372.525 M193.700 377.076 C 194.085 377.176,194.715 377.176,195.100 377.076 C 195.485 376.975,195.170 376.893,194.400 376.893 C 193.630 376.893,193.315 376.975,193.700 377.076 M196.900 377.076 C 197.285 377.176,197.915 377.176,198.300 377.076 C 198.685 376.975,198.370 376.893,197.600 376.893 C 196.830 376.893,196.515 376.975,196.900 377.076 " stroke="none" fill="#9c9c9c" fill-rule="evenodd"></path><path id="path4" d="M172.887 59.100 L 173.000 63.800 195.200 63.800 L 217.400 63.800 217.513 59.100 L 217.625 54.400 195.200 54.400 L 172.775 54.400 172.887 59.100 " stroke="none" fill="#040404" fill-rule="evenodd"></path></g></svg>